<?xml version="1.0" encoding="UTF-8" standalone="no"?>
<!-- Created with Inkscape (http://www.inkscape.org/) -->

<svg
   width="1026.0774"
   height="851.96216"
   viewBox="0 0 271.48298 225.41499"
   version="1.1"
   id="svg1"
   xmlns="http://www.w3.org/2000/svg"
   xmlns:svg="http://www.w3.org/2000/svg">
  <defs
     id="defs1" />
  <g
     id="layer1"
     transform="translate(-659.55493,-302.89001)">
    <path
       id="path115"
       style="font-size:85.3333px;font-family:Phosphate;-inkscape-font-specification:Phosphate;white-space:pre;fill:#ffffff;fill-opacity:1;stroke-width:1.05833;stroke-linejoin:round;stroke-opacity:0.298039"
       d="m 660.38424,334.86052 c -0.10174,-0.10189 -0.21647,-0.1899 -0.34119,-0.26199 l -0.86778,-0.50106 c -0.60651,-0.35015 -1.33069,-0.43439 -2.00143,-0.23299 l -2.67208,0.80224 c -0.59779,0.17931 -0.96418,0.78053 -0.84953,1.39403 l 0.29323,1.56443 c 0.0652,0.34814 0.004,0.70797 -0.17348,1.01461 l -3.66689,6.35119 c -0.45441,0.78736 -0.18454,1.79402 0.60281,2.24848 l 1.52784,0.8819 c 0.78714,0.45455 1.79376,0.18502 2.24846,-0.60205 l 6.16167,-10.67236 c 0.37231,-0.64509 0.26504,-1.45977 -0.26152,-1.98655 z" />
    <path
       id="path117"
       style="font-size:85.3333px;font-family:Phosphate;-inkscape-font-specification:Phosphate;white-space:pre;fill:#ffffff;fill-opacity:1;stroke-width:1.05833;stroke-linejoin:round;stroke-opacity:0.298039"
       d="m 667.51668,359.90654 c -0.10172,-0.10189 -0.21649,-0.18991 -0.34117,-0.26199 l -0.86785,-0.50104 c -0.60646,-0.35014 -1.33064,-0.43441 -2.00136,-0.23298 l -2.67205,0.80222 c -0.59781,0.17932 -0.96424,0.78053 -0.84955,1.39402 l 0.29317,1.56447 c 0.0651,0.34815 0.004,0.70794 -0.17345,1.01453 l -3.66688,6.35123 c -0.45439,0.78741 -0.18453,1.79403 0.60284,2.24845 l 1.52783,0.88196 c 0.78716,0.45452 1.79377,0.18498 2.24842,-0.60204 l 6.16168,-10.67237 c 0.37232,-0.64513 0.26506,-1.45983 -0.26152,-1.98654 z" />
    <path
       id="path123"
       style="font-size:85.3333px;font-family:Phosphate;-inkscape-font-specification:Phosphate;white-space:pre;fill:#ffffff;fill-opacity:1;stroke-width:1.05833;stroke-linejoin:round;stroke-opacity:0.298039"
       d="m 660.3842,409.9987 c -0.10174,-0.10188 -0.2165,-0.1899 -0.34123,-0.26202 l -0.86781,-0.50104 c -0.60649,-0.35015 -1.33067,-0.43436 -2.00138,-0.23291 l -2.67208,0.8022 c -0.59778,0.17932 -0.9642,0.78056 -0.84957,1.394 l 0.29324,1.56442 c 0.0652,0.34816 0.004,0.70801 -0.17345,1.01469 l -3.6669,6.35116 c -0.45442,0.78736 -0.18455,1.79398 0.60283,2.24846 l 1.52787,0.8819 c 0.78713,0.45456 1.79368,0.18503 2.24838,-0.60205 l 6.16171,-10.67233 c 0.37229,-0.64506 0.26501,-1.45983 -0.2615,-1.98654 z" />
    <path
       id="path125"
       style="font-size:85.3333px;font-family:Phosphate;-inkscape-font-specification:Phosphate;white-space:pre;fill:#ffffff;fill-opacity:1;stroke-width:1.05833;stroke-linejoin:round;stroke-opacity:0.298039"
       d="m 667.51669,435.0448 c -0.10174,-0.10189 -0.21651,-0.18991 -0.34117,-0.26197 l -0.86784,-0.50103 c -0.60651,-0.35015 -1.33067,-0.43435 -2.00144,-0.23295 l -2.67205,0.80222 c -0.5978,0.17931 -0.96417,0.78046 -0.84951,1.39399 l 0.29318,1.56441 c 0.0651,0.34797 0.004,0.70804 -0.17345,1.01463 l -3.66689,6.35113 c -0.4544,0.78741 -0.18454,1.79406 0.60279,2.24854 l 1.52784,0.88192 c 0.78719,0.4545 1.79378,0.18499 2.2485,-0.60206 l 6.16168,-10.67235 c 0.37231,-0.6451 0.26501,-1.45976 -0.26156,-1.98656 z" />
    <path
       id="path194"
       style="font-size:85.3333px;font-family:Phosphate;-inkscape-font-specification:Phosphate;white-space:pre;fill:#ffffff;fill-opacity:1;stroke-width:1.05833;stroke-linejoin:round;stroke-opacity:0.298039"
       d="m 660.38424,485.13703 c -0.10181,-0.10181 -0.2165,-0.18991 -0.34118,-0.26199 l -0.86784,-0.50101 c -0.60649,-0.35015 -1.33064,-0.4344 -2.00138,-0.23293 l -2.67211,0.80218 c -0.5978,0.17932 -0.96417,0.78048 -0.84953,1.39402 l 0.29322,1.56446 c 0.0652,0.34815 0.004,0.70793 -0.17347,1.0146 l -3.66691,6.35119 c -0.4544,0.78731 -0.18449,1.794 0.60284,2.24843 l 1.52784,0.88193 c 0.78716,0.45455 1.79377,0.18505 2.24842,-0.60202 l 6.16171,-10.67244 c 0.37228,-0.64502 0.26502,-1.45973 -0.26154,-1.98651 z" />
    <path
       id="path196"
       style="font-size:85.3333px;font-family:Phosphate;-inkscape-font-specification:Phosphate;white-space:pre;fill:#ffffff;fill-opacity:1;stroke-width:1.05833;stroke-linejoin:round;stroke-opacity:0.298039"
       d="m 667.51671,510.18315 c -0.10174,-0.10189 -0.21651,-0.18991 -0.34117,-0.26198 l -0.8678,-0.50105 c -0.60655,-0.35018 -1.33068,-0.4344 -2.00141,-0.23294 l -2.67213,0.80219 c -0.5978,0.17934 -0.96416,0.78052 -0.84946,1.39398 l 0.29313,1.56451 c 0.0652,0.3479 0.004,0.70794 -0.17344,1.01456 l -3.66688,6.35118 c -0.45438,0.78735 -0.18453,1.79404 0.60282,2.24845 l 1.52784,0.88196 c 0.78721,0.45457 1.79377,0.185 2.24841,-0.60205 l 6.16176,-10.67234 c 0.37229,-0.64505 0.26496,-1.45978 -0.2616,-1.98657 z" />
    <path
       id="path690"
       style="font-size:85.3333px;font-family:Phosphate;-inkscape-font-specification:Phosphate;white-space:pre;fill:#ffffff;fill-opacity:1;stroke-width:1.05833;stroke-linejoin:round;stroke-opacity:0.298039"
       d="m 675.87537,309.81431 c -0.10172,-0.10188 -0.21651,-0.18991 -0.34119,-0.26199 l -0.86782,-0.50097 c -0.60653,-0.35017 -1.33069,-0.43445 -2.00145,-0.23295 l -2.67204,0.80215 c -0.59782,0.17932 -0.96417,0.78055 -0.84955,1.39401 l 0.29324,1.56448 c 0.0651,0.34816 0.004,0.70794 -0.17351,1.01461 l -3.66687,6.35116 c -0.45441,0.78735 -0.18454,1.79404 0.60284,2.24845 l 1.52781,0.88194 c 0.78715,0.45454 1.79375,0.18504 2.24849,-0.60203 l 6.16164,-10.67237 c 0.3723,-0.64509 0.26501,-1.45978 -0.26154,-1.98655 z" />
    <path
       id="path691"
       style="font-size:85.3333px;font-family:Phosphate;-inkscape-font-specification:Phosphate;white-space:pre;fill:#ffffff;fill-opacity:1;stroke-width:1.05833;stroke-linejoin:round;stroke-opacity:0.298039"
       d="m 683.0078,334.86052 c -0.10174,-0.10189 -0.21647,-0.1899 -0.34119,-0.26199 l -0.86778,-0.50106 c -0.60651,-0.35015 -1.33069,-0.43439 -2.00143,-0.23299 l -2.67208,0.80224 c -0.59779,0.17931 -0.96418,0.78053 -0.84953,1.39403 l 0.29323,1.56443 c 0.0652,0.34814 0.004,0.70797 -0.17348,1.01461 l -3.66689,6.35119 c -0.45441,0.78736 -0.18454,1.79402 0.60281,2.24848 l 1.52784,0.8819 c 0.78714,0.45455 1.79376,0.18502 2.24846,-0.60205 l 6.16167,-10.67236 c 0.37231,-0.64509 0.26504,-1.45977 -0.26152,-1.98655 z" />
    <path
       id="path692"
       style="font-size:85.3333px;font-family:Phosphate;-inkscape-font-specification:Phosphate;white-space:pre;fill:#ffffff;fill-opacity:1;stroke-width:1.05833;stroke-linejoin:round;stroke-opacity:0.298039"
       d="m 690.14023,359.90654 c -0.10172,-0.10189 -0.21649,-0.18991 -0.34117,-0.26199 l -0.86785,-0.50104 c -0.60646,-0.35014 -1.33064,-0.43441 -2.00136,-0.23298 l -2.67205,0.80222 c -0.59781,0.17932 -0.96424,0.78053 -0.84955,1.39402 l 0.29317,1.56447 c 0.0651,0.34815 0.004,0.70794 -0.17345,1.01453 l -3.66688,6.35123 c -0.45439,0.78741 -0.18453,1.79403 0.60284,2.24845 l 1.52783,0.88196 c 0.78716,0.45452 1.79377,0.18498 2.24842,-0.60204 l 6.16168,-10.67237 c 0.37232,-0.64513 0.26506,-1.45983 -0.26152,-1.98654 z" />
    <path
       id="path693"
       style="font-size:85.3333px;font-family:Phosphate;-inkscape-font-specification:Phosphate;white-space:pre;fill:#ffffff;fill-opacity:1;stroke-width:1.05833;stroke-linejoin:round;stroke-opacity:0.298039"
       d="m 683.00776,409.9987 c -0.10174,-0.10188 -0.2165,-0.1899 -0.34123,-0.26202 l -0.86781,-0.50104 c -0.60649,-0.35015 -1.33067,-0.43436 -2.00138,-0.23291 l -2.67208,0.8022 c -0.59778,0.17932 -0.9642,0.78056 -0.84957,1.394 l 0.29324,1.56442 c 0.0652,0.34816 0.004,0.70801 -0.17345,1.01469 l -3.6669,6.35116 c -0.45442,0.78736 -0.18455,1.79398 0.60283,2.24846 l 1.52787,0.8819 c 0.78713,0.45456 1.79368,0.18503 2.24838,-0.60205 l 6.16171,-10.67233 c 0.37229,-0.64506 0.26501,-1.45983 -0.2615,-1.98654 z" />
    <path
       id="path694"
       style="font-size:85.3333px;font-family:Phosphate;-inkscape-font-specification:Phosphate;white-space:pre;fill:#ffffff;fill-opacity:1;stroke-width:1.05833;stroke-linejoin:round;stroke-opacity:0.298039"
       d="m 690.14027,435.0448 c -0.10174,-0.10189 -0.21651,-0.18991 -0.34117,-0.26197 l -0.86784,-0.50103 c -0.60651,-0.35015 -1.33067,-0.43435 -2.00144,-0.23295 l -2.67205,0.80222 c -0.5978,0.17931 -0.96417,0.78046 -0.84951,1.39399 l 0.29318,1.56441 c 0.0651,0.34797 0.004,0.70804 -0.17345,1.01463 l -3.66689,6.35113 c -0.4544,0.78741 -0.18454,1.79406 0.60279,2.24854 l 1.52784,0.88192 c 0.78719,0.4545 1.79378,0.18499 2.2485,-0.60206 l 6.16168,-10.67235 c 0.37231,-0.6451 0.26501,-1.45976 -0.26156,-1.98656 z" />
    <path
       id="path695"
       style="font-size:85.3333px;font-family:Phosphate;-inkscape-font-specification:Phosphate;white-space:pre;fill:#ffffff;fill-opacity:1;stroke-width:1.05833;stroke-linejoin:round;stroke-opacity:0.298039"
       d="m 675.87533,384.95258 c -0.10174,-0.10188 -0.2165,-0.1899 -0.34117,-0.26197 l -0.86781,-0.50101 c -0.60654,-0.35017 -1.33068,-0.43441 -2.00142,-0.23298 l -2.67208,0.8022 c -0.59782,0.17933 -0.96417,0.78056 -0.84959,1.39404 l 0.29327,1.56445 c 0.0652,0.34795 0.004,0.70795 -0.17349,1.01458 l -3.66686,6.3512 c -0.45446,0.78741 -0.18456,1.79403 0.60277,2.24848 l 1.52782,0.8819 c 0.7872,0.45454 1.79382,0.18505 2.24852,-0.60202 l 6.16168,-10.67236 c 0.3723,-0.64507 0.26499,-1.45981 -0.26157,-1.98653 z" />
    <path
       id="path696"
       style="font-size:85.3333px;font-family:Phosphate;-inkscape-font-specification:Phosphate;white-space:pre;fill:#ffffff;fill-opacity:1;stroke-width:1.05833;stroke-linejoin:round;stroke-opacity:0.298039"
       d="m 675.87533,460.09089 c -0.10181,-0.10181 -0.21647,-0.1899 -0.34113,-0.26193 l -0.86785,-0.50106 c -0.60652,-0.35016 -1.33065,-0.43443 -2.00139,-0.23298 l -2.67213,0.80221 c -0.59778,0.17931 -0.96414,0.78056 -0.8495,1.39402 l 0.29322,1.56445 c 0.0651,0.34817 0.004,0.70796 -0.1735,1.01459 l -3.66686,6.35123 c -0.45445,0.78737 -0.18456,1.794 0.6028,2.24846 l 1.52785,0.88196 c 0.78718,0.45453 1.79376,0.185 2.24842,-0.60211 l 6.16175,-10.67236 c 0.37228,-0.64504 0.26495,-1.45975 -0.26159,-1.9865 z" />
    <path
       id="path697"
       style="font-size:85.3333px;font-family:Phosphate;-inkscape-font-specification:Phosphate;white-space:pre;fill:#ffffff;fill-opacity:1;stroke-width:1.05833;stroke-linejoin:round;stroke-opacity:0.298039"
       d="m 683.00779,485.13703 c -0.10181,-0.10181 -0.2165,-0.18991 -0.34118,-0.26199 l -0.86784,-0.50101 c -0.60649,-0.35015 -1.33064,-0.4344 -2.00138,-0.23293 l -2.67211,0.80218 c -0.5978,0.17932 -0.96417,0.78048 -0.84953,1.39402 l 0.29322,1.56446 c 0.0652,0.34815 0.004,0.70793 -0.17347,1.0146 l -3.66691,6.35119 c -0.4544,0.78731 -0.18449,1.794 0.60284,2.24843 l 1.52784,0.88193 c 0.78716,0.45455 1.79377,0.18505 2.24842,-0.60202 l 6.16171,-10.67244 c 0.37228,-0.64502 0.26502,-1.45973 -0.26154,-1.98651 z" />
    <path
       id="path698"
       style="font-size:85.3333px;font-family:Phosphate;-inkscape-font-specification:Phosphate;white-space:pre;fill:#ffffff;fill-opacity:1;stroke-width:1.05833;stroke-linejoin:round;stroke-opacity:0.298039"
       d="m 690.14027,510.18315 c -0.10174,-0.10189 -0.21651,-0.18991 -0.34117,-0.26198 l -0.8678,-0.50105 c -0.60655,-0.35018 -1.33068,-0.4344 -2.00141,-0.23294 l -2.67213,0.80219 c -0.5978,0.17934 -0.96416,0.78052 -0.84946,1.39398 l 0.29313,1.56451 c 0.0652,0.3479 0.004,0.70794 -0.17344,1.01456 l -3.66688,6.35118 c -0.45438,0.78735 -0.18453,1.79404 0.60282,2.24845 l 1.52784,0.88196 c 0.78721,0.45457 1.79377,0.185 2.24841,-0.60205 l 6.16176,-10.67234 c 0.37229,-0.64505 0.26496,-1.45978 -0.2616,-1.98657 z" />
    <path
       id="path700"
       style="font-size:85.3333px;font-family:Phosphate;-inkscape-font-specification:Phosphate;white-space:pre;fill:#ffffff;fill-opacity:1;stroke-width:1.05833;stroke-linejoin:round;stroke-opacity:0.298039"
       d="m 698.49891,309.81431 c -0.10172,-0.10188 -0.21651,-0.18991 -0.34119,-0.26199 l -0.86782,-0.50097 c -0.60653,-0.35017 -1.33069,-0.43445 -2.00145,-0.23295 l -2.67204,0.80215 c -0.59782,0.17932 -0.96417,0.78055 -0.84955,1.39401 l 0.29324,1.56448 c 0.0651,0.34816 0.004,0.70794 -0.17351,1.01461 l -3.66687,6.35116 c -0.45441,0.78735 -0.18454,1.79404 0.60284,2.24845 l 1.52781,0.88194 c 0.78715,0.45454 1.79375,0.18504 2.24849,-0.60203 l 6.16164,-10.67237 c 0.3723,-0.64509 0.26501,-1.45978 -0.26154,-1.98655 z" />
    <path
       id="path701"
       style="font-size:85.3333px;font-family:Phosphate;-inkscape-font-specification:Phosphate;white-space:pre;fill:#ffffff;fill-opacity:1;stroke-width:1.05833;stroke-linejoin:round;stroke-opacity:0.298039"
       d="m 705.63136,334.86052 c -0.10174,-0.10189 -0.21647,-0.1899 -0.34119,-0.26199 l -0.86778,-0.50106 c -0.60651,-0.35015 -1.33069,-0.43439 -2.00143,-0.23299 l -2.67208,0.80224 c -0.59779,0.17931 -0.96418,0.78053 -0.84953,1.39403 l 0.29323,1.56443 c 0.0652,0.34814 0.004,0.70797 -0.17348,1.01461 l -3.66689,6.35119 c -0.45441,0.78736 -0.18454,1.79402 0.60281,2.24848 l 1.52784,0.8819 c 0.78714,0.45455 1.79376,0.18502 2.24846,-0.60205 l 6.16167,-10.67236 c 0.37231,-0.64509 0.26504,-1.45977 -0.26152,-1.98655 z" />
    <path
       id="path702"
       style="font-size:85.3333px;font-family:Phosphate;-inkscape-font-specification:Phosphate;white-space:pre;fill:#ffffff;fill-opacity:1;stroke-width:1.05833;stroke-linejoin:round;stroke-opacity:0.298039"
       d="m 712.76378,359.90654 c -0.10172,-0.10189 -0.21649,-0.18991 -0.34117,-0.26199 l -0.86785,-0.50104 c -0.60646,-0.35014 -1.33064,-0.43441 -2.00136,-0.23298 l -2.67205,0.80222 c -0.59781,0.17932 -0.96424,0.78053 -0.84955,1.39402 l 0.29317,1.56447 c 0.0651,0.34815 0.004,0.70794 -0.17345,1.01453 l -3.66688,6.35123 c -0.45439,0.78741 -0.18453,1.79403 0.60284,2.24845 l 1.52783,0.88196 c 0.78716,0.45452 1.79377,0.18498 2.24842,-0.60204 l 6.16168,-10.67237 c 0.37232,-0.64513 0.26506,-1.45983 -0.26152,-1.98654 z" />
    <path
       id="path703"
       style="font-size:85.3333px;font-family:Phosphate;-inkscape-font-specification:Phosphate;white-space:pre;fill:#ffffff;fill-opacity:1;stroke-width:1.05833;stroke-linejoin:round;stroke-opacity:0.298039"
       d="m 705.63132,409.9987 c -0.10174,-0.10188 -0.2165,-0.1899 -0.34123,-0.26202 l -0.86781,-0.50104 c -0.60649,-0.35015 -1.33067,-0.43436 -2.00138,-0.23291 l -2.67208,0.8022 c -0.59778,0.17932 -0.9642,0.78056 -0.84957,1.394 l 0.29324,1.56442 c 0.0652,0.34816 0.004,0.70801 -0.17345,1.01469 l -3.6669,6.35116 c -0.45442,0.78736 -0.18455,1.79398 0.60283,2.24846 l 1.52787,0.8819 c 0.78713,0.45456 1.79368,0.18503 2.24838,-0.60205 l 6.16171,-10.67233 c 0.37229,-0.64506 0.26501,-1.45983 -0.2615,-1.98654 z" />
    <path
       id="path704"
       style="font-size:85.3333px;font-family:Phosphate;-inkscape-font-specification:Phosphate;white-space:pre;fill:#ffffff;fill-opacity:1;stroke-width:1.05833;stroke-linejoin:round;stroke-opacity:0.298039"
       d="m 712.76384,435.0448 c -0.10174,-0.10189 -0.21651,-0.18991 -0.34117,-0.26197 l -0.86784,-0.50103 c -0.60651,-0.35015 -1.33067,-0.43435 -2.00144,-0.23295 l -2.67205,0.80222 c -0.5978,0.17931 -0.96417,0.78046 -0.84951,1.39399 l 0.29318,1.56441 c 0.0651,0.34797 0.004,0.70804 -0.17345,1.01463 l -3.66689,6.35113 c -0.4544,0.78741 -0.18454,1.79406 0.60279,2.24854 l 1.52784,0.88192 c 0.78719,0.4545 1.79378,0.18499 2.2485,-0.60206 l 6.16168,-10.67235 c 0.37231,-0.6451 0.26501,-1.45976 -0.26156,-1.98656 z" />
    <path
       id="path705"
       style="font-size:85.3333px;font-family:Phosphate;-inkscape-font-specification:Phosphate;white-space:pre;fill:#ffffff;fill-opacity:1;stroke-width:1.05833;stroke-linejoin:round;stroke-opacity:0.298039"
       d="m 698.4989,384.95258 c -0.10174,-0.10188 -0.2165,-0.1899 -0.34117,-0.26197 l -0.86781,-0.50101 c -0.60654,-0.35017 -1.33068,-0.43441 -2.00142,-0.23298 l -2.67208,0.8022 c -0.59782,0.17933 -0.96417,0.78056 -0.84959,1.39404 l 0.29327,1.56445 c 0.0652,0.34795 0.004,0.70795 -0.17349,1.01458 l -3.66686,6.3512 c -0.45446,0.78741 -0.18456,1.79403 0.60277,2.24848 l 1.52782,0.8819 c 0.7872,0.45454 1.79382,0.18505 2.24852,-0.60202 l 6.16168,-10.67236 c 0.3723,-0.64507 0.26499,-1.45981 -0.26157,-1.98653 z" />
    <path
       id="path706"
       style="font-size:85.3333px;font-family:Phosphate;-inkscape-font-specification:Phosphate;white-space:pre;fill:#ffffff;fill-opacity:1;stroke-width:1.05833;stroke-linejoin:round;stroke-opacity:0.298039"
       d="m 698.49891,460.09089 c -0.10181,-0.10181 -0.21647,-0.1899 -0.34113,-0.26193 l -0.86785,-0.50106 c -0.60652,-0.35016 -1.33065,-0.43443 -2.00139,-0.23298 l -2.67213,0.80221 c -0.59778,0.17931 -0.96414,0.78056 -0.8495,1.39402 l 0.29322,1.56445 c 0.0651,0.34817 0.004,0.70796 -0.1735,1.01459 l -3.66686,6.35123 c -0.45445,0.78737 -0.18456,1.794 0.6028,2.24846 l 1.52785,0.88196 c 0.78718,0.45453 1.79376,0.185 2.24842,-0.60211 l 6.16175,-10.67236 c 0.37228,-0.64504 0.26495,-1.45975 -0.26159,-1.9865 z" />
    <path
       id="path707"
       style="font-size:85.3333px;font-family:Phosphate;-inkscape-font-specification:Phosphate;white-space:pre;fill:#ffffff;fill-opacity:1;stroke-width:1.05833;stroke-linejoin:round;stroke-opacity:0.298039"
       d="m 705.63135,485.13703 c -0.10181,-0.10181 -0.2165,-0.18991 -0.34118,-0.26199 l -0.86784,-0.50101 c -0.60649,-0.35015 -1.33064,-0.4344 -2.00138,-0.23293 l -2.67211,0.80218 c -0.5978,0.17932 -0.96417,0.78048 -0.84953,1.39402 l 0.29322,1.56446 c 0.0652,0.34815 0.004,0.70793 -0.17347,1.0146 l -3.66691,6.35119 c -0.4544,0.78731 -0.18449,1.794 0.60284,2.24843 l 1.52784,0.88193 c 0.78716,0.45455 1.79377,0.18505 2.24842,-0.60202 l 6.16171,-10.67244 c 0.37228,-0.64502 0.26502,-1.45973 -0.26154,-1.98651 z" />
    <path
       id="path708"
       style="font-size:85.3333px;font-family:Phosphate;-inkscape-font-specification:Phosphate;white-space:pre;fill:#ffffff;fill-opacity:1;stroke-width:1.05833;stroke-linejoin:round;stroke-opacity:0.298039"
       d="m 712.76383,510.18315 c -0.10174,-0.10189 -0.21651,-0.18991 -0.34117,-0.26198 l -0.8678,-0.50105 c -0.60655,-0.35018 -1.33068,-0.4344 -2.00141,-0.23294 l -2.67213,0.80219 c -0.5978,0.17934 -0.96416,0.78052 -0.84946,1.39398 l 0.29313,1.56451 c 0.0652,0.3479 0.004,0.70794 -0.17344,1.01456 l -3.66688,6.35118 c -0.45438,0.78735 -0.18453,1.79404 0.60282,2.24845 l 1.52784,0.88196 c 0.78721,0.45457 1.79377,0.185 2.24841,-0.60205 l 6.16176,-10.67234 c 0.37229,-0.64505 0.26496,-1.45978 -0.2616,-1.98657 z" />
    <path
       id="path710"
       style="font-size:85.3333px;font-family:Phosphate;-inkscape-font-specification:Phosphate;white-space:pre;fill:#ffffff;fill-opacity:1;stroke-width:1.05833;stroke-linejoin:round;stroke-opacity:0.298039"
       d="m 721.12246,309.81431 c -0.10172,-0.10188 -0.21651,-0.18991 -0.34119,-0.26199 l -0.86782,-0.50097 c -0.60653,-0.35017 -1.33069,-0.43445 -2.00145,-0.23295 l -2.67204,0.80215 c -0.59782,0.17932 -0.96417,0.78055 -0.84955,1.39401 l 0.29324,1.56448 c 0.0651,0.34816 0.004,0.70794 -0.17351,1.01461 l -3.66687,6.35116 c -0.45441,0.78735 -0.18454,1.79404 0.60284,2.24845 l 1.52781,0.88194 c 0.78715,0.45454 1.79375,0.18504 2.24849,-0.60203 l 6.16164,-10.67237 c 0.3723,-0.64509 0.26501,-1.45978 -0.26154,-1.98655 z" />
    <path
       id="path711"
       style="font-size:85.3333px;font-family:Phosphate;-inkscape-font-specification:Phosphate;white-space:pre;fill:#ffffff;fill-opacity:1;stroke-width:1.05833;stroke-linejoin:round;stroke-opacity:0.298039"
       d="m 728.25492,334.86052 c -0.10174,-0.10189 -0.21647,-0.1899 -0.34119,-0.26199 l -0.86778,-0.50106 c -0.60651,-0.35015 -1.33069,-0.43439 -2.00143,-0.23299 l -2.67208,0.80224 c -0.59779,0.17931 -0.96418,0.78053 -0.84953,1.39403 l 0.29323,1.56443 c 0.0652,0.34814 0.004,0.70797 -0.17348,1.01461 l -3.66689,6.35119 c -0.45441,0.78736 -0.18454,1.79402 0.60281,2.24848 l 1.52784,0.8819 c 0.78714,0.45455 1.79376,0.18502 2.24846,-0.60205 l 6.16167,-10.67236 c 0.37231,-0.64509 0.26504,-1.45977 -0.26152,-1.98655 z" />
    <path
       id="path712"
       style="font-size:85.3333px;font-family:Phosphate;-inkscape-font-specification:Phosphate;white-space:pre;fill:#ffffff;fill-opacity:1;stroke-width:1.05833;stroke-linejoin:round;stroke-opacity:0.298039"
       d="m 735.38732,359.90654 c -0.10172,-0.10189 -0.21649,-0.18991 -0.34117,-0.26199 l -0.86785,-0.50104 c -0.60646,-0.35014 -1.33064,-0.43441 -2.00136,-0.23298 l -2.67205,0.80222 c -0.59781,0.17932 -0.96424,0.78053 -0.84955,1.39402 l 0.29317,1.56447 c 0.0651,0.34815 0.004,0.70794 -0.17345,1.01453 l -3.66688,6.35123 c -0.45439,0.78741 -0.18453,1.79403 0.60284,2.24845 l 1.52783,0.88196 c 0.78716,0.45452 1.79377,0.18498 2.24842,-0.60204 l 6.16168,-10.67237 c 0.37232,-0.64513 0.26506,-1.45983 -0.26152,-1.98654 z" />
    <path
       id="path713"
       style="font-size:85.3333px;font-family:Phosphate;-inkscape-font-specification:Phosphate;white-space:pre;fill:#ffffff;fill-opacity:1;stroke-width:1.05833;stroke-linejoin:round;stroke-opacity:0.298039"
       d="m 728.25488,409.9987 c -0.10174,-0.10188 -0.2165,-0.1899 -0.34123,-0.26202 l -0.86781,-0.50104 c -0.60649,-0.35015 -1.33067,-0.43436 -2.00138,-0.23291 l -2.67208,0.8022 c -0.59778,0.17932 -0.9642,0.78056 -0.84957,1.394 l 0.29324,1.56442 c 0.0652,0.34816 0.004,0.70801 -0.17345,1.01469 l -3.6669,6.35116 c -0.45442,0.78736 -0.18455,1.79398 0.60283,2.24846 l 1.52787,0.8819 c 0.78713,0.45456 1.79368,0.18503 2.24838,-0.60205 l 6.16171,-10.67233 c 0.37229,-0.64506 0.26501,-1.45983 -0.2615,-1.98654 z" />
    <path
       id="path714"
       style="font-size:85.3333px;font-family:Phosphate;-inkscape-font-specification:Phosphate;white-space:pre;fill:#ffffff;fill-opacity:1;stroke-width:1.05833;stroke-linejoin:round;stroke-opacity:0.298039"
       d="m 735.38742,435.0448 c -0.10174,-0.10189 -0.21651,-0.18991 -0.34117,-0.26197 l -0.86784,-0.50103 c -0.60651,-0.35015 -1.33067,-0.43435 -2.00144,-0.23295 l -2.67205,0.80222 c -0.5978,0.17931 -0.96417,0.78046 -0.84951,1.39399 l 0.29318,1.56441 c 0.0651,0.34797 0.004,0.70804 -0.17345,1.01463 l -3.66689,6.35113 c -0.4544,0.78741 -0.18454,1.79406 0.60279,2.24854 l 1.52784,0.88192 c 0.78719,0.4545 1.79378,0.18499 2.2485,-0.60206 l 6.16168,-10.67235 c 0.37231,-0.6451 0.26501,-1.45976 -0.26156,-1.98656 z" />
    <path
       id="path715"
       style="font-size:85.3333px;font-family:Phosphate;-inkscape-font-specification:Phosphate;white-space:pre;fill:#ffffff;fill-opacity:1;stroke-width:1.05833;stroke-linejoin:round;stroke-opacity:0.298039"
       d="m 721.12248,384.95258 c -0.10174,-0.10188 -0.2165,-0.1899 -0.34117,-0.26197 l -0.86781,-0.50101 c -0.60654,-0.35017 -1.33068,-0.43441 -2.00142,-0.23298 l -2.67208,0.8022 c -0.59782,0.17933 -0.96417,0.78056 -0.84959,1.39404 l 0.29327,1.56445 c 0.0652,0.34795 0.004,0.70795 -0.17349,1.01458 l -3.66686,6.3512 c -0.45446,0.78741 -0.18456,1.79403 0.60277,2.24848 l 1.52782,0.8819 c 0.7872,0.45454 1.79382,0.18505 2.24852,-0.60202 l 6.16168,-10.67236 c 0.3723,-0.64507 0.26499,-1.45981 -0.26157,-1.98653 z" />
    <path
       id="path716"
       style="font-size:85.3333px;font-family:Phosphate;-inkscape-font-specification:Phosphate;white-space:pre;fill:#ffffff;fill-opacity:1;stroke-width:1.05833;stroke-linejoin:round;stroke-opacity:0.298039"
       d="m 721.12249,460.09089 c -0.10181,-0.10181 -0.21647,-0.1899 -0.34113,-0.26193 l -0.86785,-0.50106 c -0.60652,-0.35016 -1.33065,-0.43443 -2.00139,-0.23298 l -2.67213,0.80221 c -0.59778,0.17931 -0.96414,0.78056 -0.8495,1.39402 l 0.29322,1.56445 c 0.0651,0.34817 0.004,0.70796 -0.1735,1.01459 l -3.66686,6.35123 c -0.45445,0.78737 -0.18456,1.794 0.6028,2.24846 l 1.52785,0.88196 c 0.78718,0.45453 1.79376,0.185 2.24842,-0.60211 l 6.16175,-10.67236 c 0.37228,-0.64504 0.26495,-1.45975 -0.26159,-1.9865 z" />
    <path
       id="path717"
       style="font-size:85.3333px;font-family:Phosphate;-inkscape-font-specification:Phosphate;white-space:pre;fill:#ffffff;fill-opacity:1;stroke-width:1.05833;stroke-linejoin:round;stroke-opacity:0.298039"
       d="m 728.2549,485.13703 c -0.10181,-0.10181 -0.2165,-0.18991 -0.34118,-0.26199 l -0.86784,-0.50101 c -0.60649,-0.35015 -1.33064,-0.4344 -2.00138,-0.23293 l -2.67211,0.80218 c -0.5978,0.17932 -0.96417,0.78048 -0.84953,1.39402 l 0.29322,1.56446 c 0.0652,0.34815 0.004,0.70793 -0.17347,1.0146 l -3.66691,6.35119 c -0.4544,0.78731 -0.18449,1.794 0.60284,2.24843 l 1.52784,0.88193 c 0.78716,0.45455 1.79377,0.18505 2.24842,-0.60202 l 6.16171,-10.67244 c 0.37228,-0.64502 0.26502,-1.45973 -0.26154,-1.98651 z" />
    <path
       id="path718"
       style="font-size:85.3333px;font-family:Phosphate;-inkscape-font-specification:Phosphate;white-space:pre;fill:#ffffff;fill-opacity:1;stroke-width:1.05833;stroke-linejoin:round;stroke-opacity:0.298039"
       d="m 735.38738,510.18315 c -0.10174,-0.10189 -0.21651,-0.18991 -0.34117,-0.26198 l -0.8678,-0.50105 c -0.60655,-0.35018 -1.33068,-0.4344 -2.00141,-0.23294 l -2.67213,0.80219 c -0.5978,0.17934 -0.96416,0.78052 -0.84946,1.39398 l 0.29313,1.56451 c 0.0652,0.3479 0.004,0.70794 -0.17344,1.01456 l -3.66688,6.35118 c -0.45438,0.78735 -0.18453,1.79404 0.60282,2.24845 l 1.52784,0.88196 c 0.78721,0.45457 1.79377,0.185 2.24841,-0.60205 l 6.16176,-10.67234 c 0.37229,-0.64505 0.26496,-1.45978 -0.2616,-1.98657 z" />
    <path
       id="path720"
       style="font-size:85.3333px;font-family:Phosphate;-inkscape-font-specification:Phosphate;white-space:pre;fill:#ffffff;fill-opacity:1;stroke-width:1.05833;stroke-linejoin:round;stroke-opacity:0.298039"
       d="m 743.746,309.81431 c -0.10172,-0.10188 -0.21651,-0.18991 -0.34119,-0.26199 l -0.86782,-0.50097 c -0.60653,-0.35017 -1.33069,-0.43445 -2.00145,-0.23295 l -2.67204,0.80215 c -0.59782,0.17932 -0.96417,0.78055 -0.84955,1.39401 l 0.29324,1.56448 c 0.0651,0.34816 0.004,0.70794 -0.17351,1.01461 l -3.66687,6.35116 c -0.45441,0.78735 -0.18454,1.79404 0.60284,2.24845 l 1.52781,0.88194 c 0.78715,0.45454 1.79375,0.18504 2.24849,-0.60203 l 6.16164,-10.67237 c 0.3723,-0.64509 0.26501,-1.45978 -0.26154,-1.98655 z" />
    <path
       id="path721"
       style="font-size:85.3333px;font-family:Phosphate;-inkscape-font-specification:Phosphate;white-space:pre;fill:#ffffff;fill-opacity:1;stroke-width:1.05833;stroke-linejoin:round;stroke-opacity:0.298039"
       d="m 750.87848,334.86052 c -0.10174,-0.10189 -0.21647,-0.1899 -0.34119,-0.26199 l -0.86778,-0.50106 c -0.60651,-0.35015 -1.33069,-0.43439 -2.00143,-0.23299 l -2.67208,0.80224 c -0.59779,0.17931 -0.96418,0.78053 -0.84953,1.39403 l 0.29323,1.56443 c 0.0652,0.34814 0.004,0.70797 -0.17348,1.01461 l -3.66689,6.35119 c -0.45441,0.78736 -0.18454,1.79402 0.60281,2.24848 l 1.52784,0.8819 c 0.78714,0.45455 1.79376,0.18502 2.24846,-0.60205 l 6.16167,-10.67236 c 0.37231,-0.64509 0.26504,-1.45977 -0.26152,-1.98655 z" />
    <path
       id="path722"
       style="font-size:85.3333px;font-family:Phosphate;-inkscape-font-specification:Phosphate;white-space:pre;fill:#ffffff;fill-opacity:1;stroke-width:1.05833;stroke-linejoin:round;stroke-opacity:0.298039"
       d="m 758.01087,359.90654 c -0.10172,-0.10189 -0.21649,-0.18991 -0.34117,-0.26199 l -0.86785,-0.50104 c -0.60646,-0.35014 -1.33064,-0.43441 -2.00136,-0.23298 l -2.67205,0.80222 c -0.59781,0.17932 -0.96424,0.78053 -0.84955,1.39402 l 0.29317,1.56447 c 0.0651,0.34815 0.004,0.70794 -0.17345,1.01453 l -3.66688,6.35123 c -0.45439,0.78741 -0.18453,1.79403 0.60284,2.24845 l 1.52783,0.88196 c 0.78716,0.45452 1.79377,0.18498 2.24842,-0.60204 L 758.2725,361.893 c 0.37232,-0.64513 0.26506,-1.45983 -0.26152,-1.98654 z" />
    <path
       id="path723"
       style="font-size:85.3333px;font-family:Phosphate;-inkscape-font-specification:Phosphate;white-space:pre;fill:#ffffff;fill-opacity:1;stroke-width:1.05833;stroke-linejoin:round;stroke-opacity:0.298039"
       d="m 750.87844,409.9987 c -0.10174,-0.10188 -0.2165,-0.1899 -0.34123,-0.26202 l -0.86781,-0.50104 c -0.60649,-0.35015 -1.33067,-0.43436 -2.00138,-0.23291 l -2.67208,0.8022 c -0.59778,0.17932 -0.9642,0.78056 -0.84957,1.394 l 0.29324,1.56442 c 0.0652,0.34816 0.004,0.70801 -0.17345,1.01469 l -3.6669,6.35116 c -0.45442,0.78736 -0.18455,1.79398 0.60283,2.24846 l 1.52787,0.8819 c 0.78713,0.45456 1.79368,0.18503 2.24838,-0.60205 l 6.16171,-10.67233 c 0.37229,-0.64506 0.26501,-1.45983 -0.2615,-1.98654 z" />
    <path
       id="path724"
       style="font-size:85.3333px;font-family:Phosphate;-inkscape-font-specification:Phosphate;white-space:pre;fill:#ffffff;fill-opacity:1;stroke-width:1.05833;stroke-linejoin:round;stroke-opacity:0.298039"
       d="m 758.01099,435.0448 c -0.10174,-0.10189 -0.21651,-0.18991 -0.34117,-0.26197 l -0.86784,-0.50103 c -0.60651,-0.35015 -1.33067,-0.43435 -2.00144,-0.23295 l -2.67205,0.80222 c -0.5978,0.17931 -0.96417,0.78046 -0.84951,1.39399 l 0.29318,1.56441 c 0.0651,0.34797 0.004,0.70804 -0.17345,1.01463 l -3.66689,6.35113 c -0.4544,0.78741 -0.18454,1.79406 0.60279,2.24854 l 1.52784,0.88192 c 0.78719,0.4545 1.79378,0.18499 2.2485,-0.60206 l 6.16168,-10.67235 c 0.37231,-0.6451 0.26501,-1.45976 -0.26156,-1.98656 z" />
    <path
       id="path725"
       style="font-size:85.3333px;font-family:Phosphate;-inkscape-font-specification:Phosphate;white-space:pre;fill:#ffffff;fill-opacity:1;stroke-width:1.05833;stroke-linejoin:round;stroke-opacity:0.298039"
       d="m 743.74606,384.95258 c -0.10174,-0.10188 -0.2165,-0.1899 -0.34117,-0.26197 l -0.86781,-0.50101 c -0.60654,-0.35017 -1.33068,-0.43441 -2.00142,-0.23298 l -2.67208,0.8022 c -0.59782,0.17933 -0.96417,0.78056 -0.84959,1.39404 l 0.29327,1.56445 c 0.0652,0.34795 0.004,0.70795 -0.17349,1.01458 l -3.66686,6.3512 c -0.45446,0.78741 -0.18456,1.79403 0.60277,2.24848 l 1.52782,0.8819 c 0.7872,0.45454 1.79382,0.18505 2.24852,-0.60202 l 6.16168,-10.67236 c 0.3723,-0.64507 0.26499,-1.45981 -0.26157,-1.98653 z" />
    <path
       id="path726"
       style="font-size:85.3333px;font-family:Phosphate;-inkscape-font-specification:Phosphate;white-space:pre;fill:#ffffff;fill-opacity:1;stroke-width:1.05833;stroke-linejoin:round;stroke-opacity:0.298039"
       d="m 743.74607,460.09089 c -0.10181,-0.10181 -0.21647,-0.1899 -0.34113,-0.26193 l -0.86785,-0.50106 c -0.60652,-0.35016 -1.33065,-0.43443 -2.00139,-0.23298 l -2.67213,0.80221 c -0.59778,0.17931 -0.96414,0.78056 -0.8495,1.39402 l 0.29322,1.56445 c 0.0651,0.34817 0.004,0.70796 -0.1735,1.01459 l -3.66686,6.35123 c -0.45445,0.78737 -0.18456,1.794 0.6028,2.24846 l 1.52785,0.88196 c 0.78718,0.45453 1.79376,0.185 2.24842,-0.60211 l 6.16175,-10.67236 c 0.37228,-0.64504 0.26495,-1.45975 -0.26159,-1.9865 z" />
    <path
       id="path727"
       style="font-size:85.3333px;font-family:Phosphate;-inkscape-font-specification:Phosphate;white-space:pre;fill:#ffffff;fill-opacity:1;stroke-width:1.05833;stroke-linejoin:round;stroke-opacity:0.298039"
       d="m 750.87846,485.13703 c -0.10181,-0.10181 -0.2165,-0.18991 -0.34118,-0.26199 l -0.86784,-0.50101 c -0.60649,-0.35015 -1.33064,-0.4344 -2.00138,-0.23293 l -2.67211,0.80218 c -0.5978,0.17932 -0.96417,0.78048 -0.84953,1.39402 l 0.29322,1.56446 c 0.0652,0.34815 0.004,0.70793 -0.17347,1.0146 l -3.66691,6.35119 c -0.4544,0.78731 -0.18449,1.794 0.60284,2.24843 l 1.52784,0.88193 c 0.78716,0.45455 1.79377,0.18505 2.24842,-0.60202 l 6.16171,-10.67244 c 0.37228,-0.64502 0.26502,-1.45973 -0.26154,-1.98651 z" />
    <path
       id="path728"
       style="font-size:85.3333px;font-family:Phosphate;-inkscape-font-specification:Phosphate;white-space:pre;fill:#ffffff;fill-opacity:1;stroke-width:1.05833;stroke-linejoin:round;stroke-opacity:0.298039"
       d="m 758.01094,510.18315 c -0.10174,-0.10189 -0.21651,-0.18991 -0.34117,-0.26198 l -0.8678,-0.50105 c -0.60655,-0.35018 -1.33068,-0.4344 -2.00141,-0.23294 l -2.67213,0.80219 c -0.5978,0.17934 -0.96416,0.78052 -0.84946,1.39398 l 0.29313,1.56451 c 0.0652,0.3479 0.004,0.70794 -0.17344,1.01456 l -3.66688,6.35118 c -0.45438,0.78735 -0.18453,1.79404 0.60282,2.24845 l 1.52784,0.88196 c 0.78721,0.45457 1.79377,0.185 2.24841,-0.60205 l 6.16176,-10.67234 c 0.37229,-0.64505 0.26496,-1.45978 -0.2616,-1.98657 z" />
    <path
       id="path730"
       style="font-size:85.3333px;font-family:Phosphate;-inkscape-font-specification:Phosphate;white-space:pre;fill:#ffffff;fill-opacity:1;stroke-width:1.05833;stroke-linejoin:round;stroke-opacity:0.298039"
       d="m 766.36955,309.81431 c -0.10172,-0.10188 -0.21651,-0.18991 -0.34119,-0.26199 l -0.86782,-0.50097 c -0.60653,-0.35017 -1.33069,-0.43445 -2.00145,-0.23295 l -2.67204,0.80215 c -0.59782,0.17932 -0.96417,0.78055 -0.84955,1.39401 l 0.29324,1.56448 c 0.0651,0.34816 0.004,0.70794 -0.17351,1.01461 l -3.66687,6.35116 c -0.45441,0.78735 -0.18454,1.79404 0.60284,2.24845 l 1.52781,0.88194 c 0.78715,0.45454 1.79375,0.18504 2.24849,-0.60203 l 6.16164,-10.67237 c 0.3723,-0.64509 0.26501,-1.45978 -0.26154,-1.98655 z" />
    <path
       id="path731"
       style="font-size:85.3333px;font-family:Phosphate;-inkscape-font-specification:Phosphate;white-space:pre;fill:#ffffff;fill-opacity:1;stroke-width:1.05833;stroke-linejoin:round;stroke-opacity:0.298039"
       d="m 773.50204,334.86052 c -0.10174,-0.10189 -0.21647,-0.1899 -0.34119,-0.26199 l -0.86778,-0.50106 c -0.60651,-0.35015 -1.33069,-0.43439 -2.00143,-0.23299 l -2.67208,0.80224 c -0.59779,0.17931 -0.96418,0.78053 -0.84953,1.39403 l 0.29323,1.56443 c 0.0652,0.34814 0.004,0.70797 -0.17348,1.01461 l -3.66689,6.35119 c -0.45441,0.78736 -0.18454,1.79402 0.60281,2.24848 l 1.52784,0.8819 c 0.78714,0.45455 1.79376,0.18502 2.24846,-0.60205 l 6.16167,-10.67236 c 0.37231,-0.64509 0.26504,-1.45977 -0.26152,-1.98655 z" />
    <path
       id="path732"
       style="font-size:85.3333px;font-family:Phosphate;-inkscape-font-specification:Phosphate;white-space:pre;fill:#ffffff;fill-opacity:1;stroke-width:1.05833;stroke-linejoin:round;stroke-opacity:0.298039"
       d="m 780.63442,359.90654 c -0.10172,-0.10189 -0.21649,-0.18991 -0.34117,-0.26199 l -0.86785,-0.50104 c -0.60646,-0.35014 -1.33064,-0.43441 -2.00136,-0.23298 l -2.67205,0.80222 c -0.59781,0.17932 -0.96424,0.78053 -0.84955,1.39402 l 0.29317,1.56447 c 0.0651,0.34815 0.004,0.70794 -0.17345,1.01453 l -3.66688,6.35123 c -0.45439,0.78741 -0.18453,1.79403 0.60284,2.24845 l 1.52783,0.88196 c 0.78716,0.45452 1.79377,0.18498 2.24842,-0.60204 l 6.16168,-10.67237 c 0.37232,-0.64513 0.26506,-1.45983 -0.26152,-1.98654 z" />
    <path
       id="path733"
       style="font-size:85.3333px;font-family:Phosphate;-inkscape-font-specification:Phosphate;white-space:pre;fill:#ffffff;fill-opacity:1;stroke-width:1.05833;stroke-linejoin:round;stroke-opacity:0.298039"
       d="m 773.502,409.9987 c -0.10174,-0.10188 -0.2165,-0.1899 -0.34123,-0.26202 l -0.86781,-0.50104 c -0.60649,-0.35015 -1.33067,-0.43436 -2.00138,-0.23291 l -2.67208,0.8022 c -0.59778,0.17932 -0.9642,0.78056 -0.84957,1.394 l 0.29324,1.56442 c 0.0652,0.34816 0.004,0.70801 -0.17345,1.01469 l -3.6669,6.35116 c -0.45442,0.78736 -0.18455,1.79398 0.60283,2.24846 l 1.52787,0.8819 c 0.78713,0.45456 1.79368,0.18503 2.24838,-0.60205 l 6.16171,-10.67233 c 0.37229,-0.64506 0.26501,-1.45983 -0.2615,-1.98654 z" />
    <path
       id="path734"
       style="font-size:85.3333px;font-family:Phosphate;-inkscape-font-specification:Phosphate;white-space:pre;fill:#ffffff;fill-opacity:1;stroke-width:1.05833;stroke-linejoin:round;stroke-opacity:0.298039"
       d="m 780.63457,435.0448 c -0.10174,-0.10189 -0.21651,-0.18991 -0.34117,-0.26197 l -0.86784,-0.50103 c -0.60651,-0.35015 -1.33067,-0.43435 -2.00144,-0.23295 l -2.67205,0.80222 c -0.5978,0.17931 -0.96417,0.78046 -0.84951,1.39399 l 0.29318,1.56441 c 0.0651,0.34797 0.004,0.70804 -0.17345,1.01463 l -3.66689,6.35113 c -0.4544,0.78741 -0.18454,1.79406 0.60279,2.24854 l 1.52784,0.88192 c 0.78719,0.4545 1.79378,0.18499 2.2485,-0.60206 l 6.16168,-10.67235 c 0.37231,-0.6451 0.26501,-1.45976 -0.26156,-1.98656 z" />
    <path
       id="path735"
       style="font-size:85.3333px;font-family:Phosphate;-inkscape-font-specification:Phosphate;white-space:pre;fill:#ffffff;fill-opacity:1;stroke-width:1.05833;stroke-linejoin:round;stroke-opacity:0.298039"
       d="m 766.36963,384.95258 c -0.10174,-0.10188 -0.2165,-0.1899 -0.34117,-0.26197 l -0.86781,-0.50101 c -0.60654,-0.35017 -1.33068,-0.43441 -2.00142,-0.23298 l -2.67208,0.8022 c -0.59782,0.17933 -0.96417,0.78056 -0.84959,1.39404 l 0.29327,1.56445 c 0.0652,0.34795 0.004,0.70795 -0.17349,1.01458 l -3.66686,6.3512 c -0.45446,0.78741 -0.18456,1.79403 0.60277,2.24848 l 1.52782,0.8819 c 0.7872,0.45454 1.79382,0.18505 2.24852,-0.60202 l 6.16168,-10.67236 c 0.3723,-0.64507 0.26499,-1.45981 -0.26157,-1.98653 z" />
    <path
       id="path736"
       style="font-size:85.3333px;font-family:Phosphate;-inkscape-font-specification:Phosphate;white-space:pre;fill:#ffffff;fill-opacity:1;stroke-width:1.05833;stroke-linejoin:round;stroke-opacity:0.298039"
       d="m 766.36965,460.09089 c -0.10181,-0.10181 -0.21647,-0.1899 -0.34113,-0.26193 l -0.86785,-0.50106 c -0.60652,-0.35016 -1.33065,-0.43443 -2.00139,-0.23298 l -2.67213,0.80221 c -0.59778,0.17931 -0.96414,0.78056 -0.8495,1.39402 l 0.29322,1.56445 c 0.0651,0.34817 0.004,0.70796 -0.1735,1.01459 l -3.66686,6.35123 c -0.45445,0.78737 -0.18456,1.794 0.6028,2.24846 l 1.52785,0.88196 c 0.78718,0.45453 1.79376,0.185 2.24842,-0.60211 l 6.16175,-10.67236 c 0.37228,-0.64504 0.26495,-1.45975 -0.26159,-1.9865 z" />
    <path
       id="path737"
       style="font-size:85.3333px;font-family:Phosphate;-inkscape-font-specification:Phosphate;white-space:pre;fill:#ffffff;fill-opacity:1;stroke-width:1.05833;stroke-linejoin:round;stroke-opacity:0.298039"
       d="m 773.50201,485.13703 c -0.10181,-0.10181 -0.2165,-0.18991 -0.34118,-0.26199 l -0.86784,-0.50101 c -0.60649,-0.35015 -1.33064,-0.4344 -2.00138,-0.23293 l -2.67211,0.80218 c -0.5978,0.17932 -0.96417,0.78048 -0.84953,1.39402 l 0.29322,1.56446 c 0.0652,0.34815 0.004,0.70793 -0.17347,1.0146 l -3.66691,6.35119 c -0.4544,0.78731 -0.18449,1.794 0.60284,2.24843 l 1.52784,0.88193 c 0.78716,0.45455 1.79377,0.18505 2.24842,-0.60202 l 6.16171,-10.67244 c 0.37228,-0.64502 0.26502,-1.45973 -0.26154,-1.98651 z" />
    <path
       id="path738"
       style="font-size:85.3333px;font-family:Phosphate;-inkscape-font-specification:Phosphate;white-space:pre;fill:#ffffff;fill-opacity:1;stroke-width:1.05833;stroke-linejoin:round;stroke-opacity:0.298039"
       d="m 780.6345,510.18315 c -0.10174,-0.10189 -0.21651,-0.18991 -0.34117,-0.26198 l -0.8678,-0.50105 c -0.60655,-0.35018 -1.33068,-0.4344 -2.00141,-0.23294 l -2.67213,0.80219 c -0.5978,0.17934 -0.96416,0.78052 -0.84946,1.39398 l 0.29313,1.56451 c 0.0652,0.3479 0.004,0.70794 -0.17344,1.01456 l -3.66688,6.35118 c -0.45438,0.78735 -0.18453,1.79404 0.60282,2.24845 l 1.52784,0.88196 c 0.78721,0.45457 1.79377,0.185 2.24841,-0.60205 l 6.16176,-10.67234 c 0.37229,-0.64505 0.26496,-1.45978 -0.2616,-1.98657 z" />
    <path
       id="path740"
       style="font-size:85.3333px;font-family:Phosphate;-inkscape-font-specification:Phosphate;white-space:pre;fill:#ffffff;fill-opacity:1;stroke-width:1.05833;stroke-linejoin:round;stroke-opacity:0.298039"
       d="m 788.99309,309.81431 c -0.10172,-0.10188 -0.21651,-0.18991 -0.34119,-0.26199 l -0.86782,-0.50097 c -0.60653,-0.35017 -1.33069,-0.43445 -2.00145,-0.23295 l -2.67204,0.80215 c -0.59782,0.17932 -0.96417,0.78055 -0.84955,1.39401 l 0.29324,1.56448 c 0.0651,0.34816 0.004,0.70794 -0.17351,1.01461 l -3.66687,6.35116 c -0.45441,0.78735 -0.18454,1.79404 0.60284,2.24845 l 1.52781,0.88194 c 0.78715,0.45454 1.79375,0.18504 2.24849,-0.60203 l 6.16164,-10.67237 c 0.3723,-0.64509 0.26501,-1.45978 -0.26154,-1.98655 z" />
    <path
       id="path741"
       style="font-size:85.3333px;font-family:Phosphate;-inkscape-font-specification:Phosphate;white-space:pre;fill:#ffffff;fill-opacity:1;stroke-width:1.05833;stroke-linejoin:round;stroke-opacity:0.298039"
       d="m 796.1256,334.86052 c -0.10174,-0.10189 -0.21647,-0.1899 -0.34119,-0.26199 l -0.86778,-0.50106 c -0.60651,-0.35015 -1.33069,-0.43439 -2.00143,-0.23299 l -2.67208,0.80224 c -0.59779,0.17931 -0.96418,0.78053 -0.84953,1.39403 l 0.29323,1.56443 c 0.0652,0.34814 0.004,0.70797 -0.17348,1.01461 l -3.66689,6.35119 c -0.45441,0.78736 -0.18454,1.79402 0.60281,2.24848 l 1.52784,0.8819 c 0.78714,0.45455 1.79376,0.18502 2.24846,-0.60205 l 6.16167,-10.67236 c 0.37231,-0.64509 0.26504,-1.45977 -0.26152,-1.98655 z" />
    <path
       id="path742"
       style="font-size:85.3333px;font-family:Phosphate;-inkscape-font-specification:Phosphate;white-space:pre;fill:#ffffff;fill-opacity:1;stroke-width:1.05833;stroke-linejoin:round;stroke-opacity:0.298039"
       d="m 803.25797,359.90654 c -0.10172,-0.10189 -0.21649,-0.18991 -0.34117,-0.26199 l -0.86785,-0.50104 c -0.60646,-0.35014 -1.33064,-0.43441 -2.00136,-0.23298 l -2.67205,0.80222 c -0.59781,0.17932 -0.96424,0.78053 -0.84955,1.39402 l 0.29317,1.56447 c 0.0651,0.34815 0.004,0.70794 -0.17345,1.01453 l -3.66688,6.35123 c -0.45439,0.78741 -0.18453,1.79403 0.60284,2.24845 l 1.52783,0.88196 c 0.78716,0.45452 1.79377,0.18498 2.24842,-0.60204 L 803.5196,361.893 c 0.37232,-0.64513 0.26506,-1.45983 -0.26152,-1.98654 z" />
    <path
       id="path743"
       style="font-size:85.3333px;font-family:Phosphate;-inkscape-font-specification:Phosphate;white-space:pre;fill:#ffffff;fill-opacity:1;stroke-width:1.05833;stroke-linejoin:round;stroke-opacity:0.298039"
       d="m 796.12556,409.9987 c -0.10174,-0.10188 -0.2165,-0.1899 -0.34123,-0.26202 l -0.86781,-0.50104 c -0.60649,-0.35015 -1.33067,-0.43436 -2.00138,-0.23291 l -2.67208,0.8022 c -0.59778,0.17932 -0.9642,0.78056 -0.84957,1.394 l 0.29324,1.56442 c 0.0652,0.34816 0.004,0.70801 -0.17345,1.01469 l -3.6669,6.35116 c -0.45442,0.78736 -0.18455,1.79398 0.60283,2.24846 l 1.52787,0.8819 c 0.78713,0.45456 1.79368,0.18503 2.24838,-0.60205 l 6.16171,-10.67233 c 0.37229,-0.64506 0.26501,-1.45983 -0.2615,-1.98654 z" />
    <path
       id="path744"
       style="font-size:85.3333px;font-family:Phosphate;-inkscape-font-specification:Phosphate;white-space:pre;fill:#ffffff;fill-opacity:1;stroke-width:1.05833;stroke-linejoin:round;stroke-opacity:0.298039"
       d="m 803.25814,435.0448 c -0.10174,-0.10189 -0.21651,-0.18991 -0.34117,-0.26197 l -0.86784,-0.50103 c -0.60651,-0.35015 -1.33067,-0.43435 -2.00144,-0.23295 l -2.67205,0.80222 c -0.5978,0.17931 -0.96417,0.78046 -0.84951,1.39399 l 0.29318,1.56441 c 0.0651,0.34797 0.004,0.70804 -0.17345,1.01463 l -3.66689,6.35113 c -0.4544,0.78741 -0.18454,1.79406 0.60279,2.24854 l 1.52784,0.88192 c 0.78719,0.4545 1.79378,0.18499 2.2485,-0.60206 l 6.16168,-10.67235 c 0.37231,-0.6451 0.26501,-1.45976 -0.26156,-1.98656 z" />
    <path
       id="path745"
       style="font-size:85.3333px;font-family:Phosphate;-inkscape-font-specification:Phosphate;white-space:pre;fill:#ffffff;fill-opacity:1;stroke-width:1.05833;stroke-linejoin:round;stroke-opacity:0.298039"
       d="m 788.99321,384.95258 c -0.10174,-0.10188 -0.2165,-0.1899 -0.34117,-0.26197 l -0.86781,-0.50101 c -0.60654,-0.35017 -1.33068,-0.43441 -2.00142,-0.23298 l -2.67208,0.8022 c -0.59782,0.17933 -0.96417,0.78056 -0.84959,1.39404 l 0.29327,1.56445 c 0.0652,0.34795 0.004,0.70795 -0.17349,1.01458 l -3.66686,6.3512 c -0.45446,0.78741 -0.18456,1.79403 0.60277,2.24848 l 1.52782,0.8819 c 0.7872,0.45454 1.79382,0.18505 2.24852,-0.60202 l 6.16168,-10.67236 c 0.3723,-0.64507 0.26499,-1.45981 -0.26157,-1.98653 z" />
    <path
       id="path746"
       style="font-size:85.3333px;font-family:Phosphate;-inkscape-font-specification:Phosphate;white-space:pre;fill:#ffffff;fill-opacity:1;stroke-width:1.05833;stroke-linejoin:round;stroke-opacity:0.298039"
       d="m 788.99323,460.09089 c -0.10181,-0.10181 -0.21647,-0.1899 -0.34113,-0.26193 l -0.86785,-0.50106 c -0.60652,-0.35016 -1.33065,-0.43443 -2.00139,-0.23298 l -2.67213,0.80221 c -0.59778,0.17931 -0.96414,0.78056 -0.8495,1.39402 l 0.29322,1.56445 c 0.0651,0.34817 0.004,0.70796 -0.1735,1.01459 l -3.66686,6.35123 c -0.45445,0.78737 -0.18456,1.794 0.6028,2.24846 l 1.52785,0.88196 c 0.78718,0.45453 1.79376,0.185 2.24842,-0.60211 l 6.16175,-10.67236 c 0.37228,-0.64504 0.26495,-1.45975 -0.26159,-1.9865 z" />
    <path
       id="path747"
       style="font-size:85.3333px;font-family:Phosphate;-inkscape-font-specification:Phosphate;white-space:pre;fill:#ffffff;fill-opacity:1;stroke-width:1.05833;stroke-linejoin:round;stroke-opacity:0.298039"
       d="m 796.12556,485.13703 c -0.10181,-0.10181 -0.2165,-0.18991 -0.34118,-0.26199 l -0.86784,-0.50101 c -0.60649,-0.35015 -1.33064,-0.4344 -2.00138,-0.23293 l -2.67211,0.80218 c -0.5978,0.17932 -0.96417,0.78048 -0.84953,1.39402 l 0.29322,1.56446 c 0.0652,0.34815 0.004,0.70793 -0.17347,1.0146 l -3.66691,6.35119 c -0.4544,0.78731 -0.18449,1.794 0.60284,2.24843 l 1.52784,0.88193 c 0.78716,0.45455 1.79377,0.18505 2.24842,-0.60202 l 6.16171,-10.67244 c 0.37228,-0.64502 0.26502,-1.45973 -0.26154,-1.98651 z" />
    <path
       id="path748"
       style="font-size:85.3333px;font-family:Phosphate;-inkscape-font-specification:Phosphate;white-space:pre;fill:#ffffff;fill-opacity:1;stroke-width:1.05833;stroke-linejoin:round;stroke-opacity:0.298039"
       d="m 803.25806,510.18315 c -0.10174,-0.10189 -0.21651,-0.18991 -0.34117,-0.26198 l -0.8678,-0.50105 c -0.60655,-0.35018 -1.33068,-0.4344 -2.00141,-0.23294 l -2.67213,0.80219 c -0.5978,0.17934 -0.96416,0.78052 -0.84946,1.39398 l 0.29313,1.56451 c 0.0652,0.3479 0.004,0.70794 -0.17344,1.01456 l -3.66688,6.35118 c -0.45438,0.78735 -0.18453,1.79404 0.60282,2.24845 l 1.52784,0.88196 c 0.78721,0.45457 1.79377,0.185 2.24841,-0.60205 l 6.16176,-10.67234 c 0.37229,-0.64505 0.26496,-1.45978 -0.2616,-1.98657 z" />
    <path
       id="path750"
       style="font-size:85.3333px;font-family:Phosphate;-inkscape-font-specification:Phosphate;white-space:pre;fill:#ffffff;fill-opacity:1;stroke-width:1.05833;stroke-linejoin:round;stroke-opacity:0.298039"
       d="m 811.61664,309.81431 c -0.10172,-0.10188 -0.21651,-0.18991 -0.34119,-0.26199 l -0.86782,-0.50097 c -0.60653,-0.35017 -1.33069,-0.43445 -2.00145,-0.23295 l -2.67204,0.80215 c -0.59782,0.17932 -0.96417,0.78055 -0.84955,1.39401 l 0.29324,1.56448 c 0.0651,0.34816 0.004,0.70794 -0.17351,1.01461 l -3.66687,6.35116 c -0.45441,0.78735 -0.18454,1.79404 0.60284,2.24845 l 1.52781,0.88194 c 0.78715,0.45454 1.79375,0.18504 2.24849,-0.60203 l 6.16164,-10.67237 c 0.3723,-0.64509 0.26501,-1.45978 -0.26154,-1.98655 z" />
    <path
       id="path751"
       style="font-size:85.3333px;font-family:Phosphate;-inkscape-font-specification:Phosphate;white-space:pre;fill:#ffffff;fill-opacity:1;stroke-width:1.05833;stroke-linejoin:round;stroke-opacity:0.298039"
       d="m 818.74916,334.86052 c -0.10174,-0.10189 -0.21647,-0.1899 -0.34119,-0.26199 l -0.86778,-0.50106 c -0.60651,-0.35015 -1.33069,-0.43439 -2.00143,-0.23299 l -2.67208,0.80224 c -0.59779,0.17931 -0.96418,0.78053 -0.84953,1.39403 l 0.29323,1.56443 c 0.0652,0.34814 0.004,0.70797 -0.17348,1.01461 l -3.66689,6.35119 c -0.45441,0.78736 -0.18454,1.79402 0.60281,2.24848 l 1.52784,0.8819 c 0.78714,0.45455 1.79376,0.18502 2.24846,-0.60205 l 6.16167,-10.67236 c 0.37231,-0.64509 0.26504,-1.45977 -0.26152,-1.98655 z" />
    <path
       id="path752"
       style="font-size:85.3333px;font-family:Phosphate;-inkscape-font-specification:Phosphate;white-space:pre;fill:#ffffff;fill-opacity:1;stroke-width:1.05833;stroke-linejoin:round;stroke-opacity:0.298039"
       d="m 825.88152,359.90654 c -0.10172,-0.10189 -0.21649,-0.18991 -0.34117,-0.26199 l -0.86785,-0.50104 c -0.60646,-0.35014 -1.33064,-0.43441 -2.00136,-0.23298 l -2.67205,0.80222 c -0.59781,0.17932 -0.96424,0.78053 -0.84955,1.39402 l 0.29317,1.56447 c 0.0651,0.34815 0.004,0.70794 -0.17345,1.01453 l -3.66688,6.35123 c -0.45439,0.78741 -0.18453,1.79403 0.60284,2.24845 l 1.52783,0.88196 c 0.78716,0.45452 1.79377,0.18498 2.24842,-0.60204 l 6.16168,-10.67237 c 0.37232,-0.64513 0.26506,-1.45983 -0.26152,-1.98654 z" />
    <path
       id="path753"
       style="font-size:85.3333px;font-family:Phosphate;-inkscape-font-specification:Phosphate;white-space:pre;fill:#ffffff;fill-opacity:1;stroke-width:1.05833;stroke-linejoin:round;stroke-opacity:0.298039"
       d="m 818.74912,409.9987 c -0.10174,-0.10188 -0.2165,-0.1899 -0.34123,-0.26202 l -0.86781,-0.50104 c -0.60649,-0.35015 -1.33067,-0.43436 -2.00138,-0.23291 l -2.67208,0.8022 c -0.59778,0.17932 -0.9642,0.78056 -0.84957,1.394 l 0.29324,1.56442 c 0.0652,0.34816 0.004,0.70801 -0.17345,1.01469 l -3.6669,6.35116 c -0.45442,0.78736 -0.18455,1.79398 0.60283,2.24846 l 1.52787,0.8819 c 0.78713,0.45456 1.79368,0.18503 2.24838,-0.60205 l 6.16171,-10.67233 c 0.37229,-0.64506 0.26501,-1.45983 -0.2615,-1.98654 z" />
    <path
       id="path754"
       style="font-size:85.3333px;font-family:Phosphate;-inkscape-font-specification:Phosphate;white-space:pre;fill:#ffffff;fill-opacity:1;stroke-width:1.05833;stroke-linejoin:round;stroke-opacity:0.298039"
       d="m 825.88172,435.0448 c -0.10174,-0.10189 -0.21651,-0.18991 -0.34117,-0.26197 l -0.86784,-0.50103 c -0.60651,-0.35015 -1.33067,-0.43435 -2.00144,-0.23295 l -2.67205,0.80222 c -0.5978,0.17931 -0.96417,0.78046 -0.84951,1.39399 l 0.29318,1.56441 c 0.0651,0.34797 0.004,0.70804 -0.17345,1.01463 l -3.66689,6.35113 c -0.4544,0.78741 -0.18454,1.79406 0.60279,2.24854 l 1.52784,0.88192 c 0.78719,0.4545 1.79378,0.18499 2.2485,-0.60206 l 6.16168,-10.67235 c 0.37231,-0.6451 0.26501,-1.45976 -0.26156,-1.98656 z" />
    <path
       id="path755"
       style="font-size:85.3333px;font-family:Phosphate;-inkscape-font-specification:Phosphate;white-space:pre;fill:#ffffff;fill-opacity:1;stroke-width:1.05833;stroke-linejoin:round;stroke-opacity:0.298039"
       d="m 811.61679,384.95258 c -0.10174,-0.10188 -0.2165,-0.1899 -0.34117,-0.26197 l -0.86781,-0.50101 c -0.60654,-0.35017 -1.33068,-0.43441 -2.00142,-0.23298 l -2.67208,0.8022 c -0.59782,0.17933 -0.96417,0.78056 -0.84959,1.39404 l 0.29327,1.56445 c 0.0652,0.34795 0.004,0.70795 -0.17349,1.01458 l -3.66686,6.3512 c -0.45446,0.78741 -0.18456,1.79403 0.60277,2.24848 l 1.52782,0.8819 c 0.7872,0.45454 1.79382,0.18505 2.24852,-0.60202 l 6.16168,-10.67236 c 0.3723,-0.64507 0.26499,-1.45981 -0.26157,-1.98653 z" />
    <path
       id="path756"
       style="font-size:85.3333px;font-family:Phosphate;-inkscape-font-specification:Phosphate;white-space:pre;fill:#ffffff;fill-opacity:1;stroke-width:1.05833;stroke-linejoin:round;stroke-opacity:0.298039"
       d="m 811.61681,460.09089 c -0.10181,-0.10181 -0.21647,-0.1899 -0.34113,-0.26193 l -0.86785,-0.50106 c -0.60652,-0.35016 -1.33065,-0.43443 -2.00139,-0.23298 l -2.67213,0.80221 c -0.59778,0.17931 -0.96414,0.78056 -0.8495,1.39402 l 0.29322,1.56445 c 0.0651,0.34817 0.004,0.70796 -0.1735,1.01459 l -3.66686,6.35123 c -0.45445,0.78737 -0.18456,1.794 0.6028,2.24846 l 1.52785,0.88196 c 0.78718,0.45453 1.79376,0.185 2.24842,-0.60211 l 6.16175,-10.67236 c 0.37228,-0.64504 0.26495,-1.45975 -0.26159,-1.9865 z" />
    <path
       id="path757"
       style="font-size:85.3333px;font-family:Phosphate;-inkscape-font-specification:Phosphate;white-space:pre;fill:#ffffff;fill-opacity:1;stroke-width:1.05833;stroke-linejoin:round;stroke-opacity:0.298039"
       d="m 818.74912,485.13703 c -0.10181,-0.10181 -0.2165,-0.18991 -0.34118,-0.26199 l -0.86784,-0.50101 c -0.60649,-0.35015 -1.33064,-0.4344 -2.00138,-0.23293 l -2.67211,0.80218 c -0.5978,0.17932 -0.96417,0.78048 -0.84953,1.39402 l 0.29322,1.56446 c 0.0652,0.34815 0.004,0.70793 -0.17347,1.0146 l -3.66691,6.35119 c -0.4544,0.78731 -0.18449,1.794 0.60284,2.24843 l 1.52784,0.88193 c 0.78716,0.45455 1.79377,0.18505 2.24842,-0.60202 l 6.16171,-10.67244 c 0.37228,-0.64502 0.26502,-1.45973 -0.26154,-1.98651 z" />
    <path
       id="path758"
       style="font-size:85.3333px;font-family:Phosphate;-inkscape-font-specification:Phosphate;white-space:pre;fill:#ffffff;fill-opacity:1;stroke-width:1.05833;stroke-linejoin:round;stroke-opacity:0.298039"
       d="m 825.88162,510.18315 c -0.10174,-0.10189 -0.21651,-0.18991 -0.34117,-0.26198 l -0.8678,-0.50105 c -0.60655,-0.35018 -1.33068,-0.4344 -2.00141,-0.23294 l -2.67213,0.80219 c -0.5978,0.17934 -0.96416,0.78052 -0.84946,1.39398 l 0.29313,1.56451 c 0.0652,0.3479 0.004,0.70794 -0.17344,1.01456 l -3.66688,6.35118 c -0.45438,0.78735 -0.18453,1.79404 0.60282,2.24845 l 1.52784,0.88196 c 0.78721,0.45457 1.79377,0.185 2.24841,-0.60205 l 6.16176,-10.67234 c 0.37229,-0.64505 0.26496,-1.45978 -0.2616,-1.98657 z" />
    <path
       id="path760"
       style="font-size:85.3333px;font-family:Phosphate;-inkscape-font-specification:Phosphate;white-space:pre;fill:#ffffff;fill-opacity:1;stroke-width:1.05833;stroke-linejoin:round;stroke-opacity:0.298039"
       d="m 834.24018,309.81431 c -0.10172,-0.10188 -0.21651,-0.18991 -0.34119,-0.26199 l -0.86782,-0.50097 c -0.60653,-0.35017 -1.33069,-0.43445 -2.00145,-0.23295 l -2.67204,0.80215 c -0.59782,0.17932 -0.96417,0.78055 -0.84955,1.39401 l 0.29324,1.56448 c 0.0651,0.34816 0.004,0.70794 -0.17351,1.01461 l -3.66687,6.35116 c -0.45441,0.78735 -0.18454,1.79404 0.60284,2.24845 l 1.52781,0.88194 c 0.78715,0.45454 1.79375,0.18504 2.24849,-0.60203 l 6.16164,-10.67237 c 0.3723,-0.64509 0.26501,-1.45978 -0.26154,-1.98655 z" />
    <path
       id="path761"
       style="font-size:85.3333px;font-family:Phosphate;-inkscape-font-specification:Phosphate;white-space:pre;fill:#ffffff;fill-opacity:1;stroke-width:1.05833;stroke-linejoin:round;stroke-opacity:0.298039"
       d="m 841.37272,334.86052 c -0.10174,-0.10189 -0.21647,-0.1899 -0.34119,-0.26199 l -0.86778,-0.50106 c -0.60651,-0.35015 -1.33069,-0.43439 -2.00143,-0.23299 l -2.67208,0.80224 c -0.59779,0.17931 -0.96418,0.78053 -0.84953,1.39403 l 0.29323,1.56443 c 0.0652,0.34814 0.004,0.70797 -0.17348,1.01461 l -3.66689,6.35119 c -0.45441,0.78736 -0.18454,1.79402 0.60281,2.24848 l 1.52784,0.8819 c 0.78714,0.45455 1.79376,0.18502 2.24846,-0.60205 l 6.16167,-10.67236 c 0.37231,-0.64509 0.26504,-1.45977 -0.26152,-1.98655 z" />
    <path
       id="path762"
       style="font-size:85.3333px;font-family:Phosphate;-inkscape-font-specification:Phosphate;white-space:pre;fill:#ffffff;fill-opacity:1;stroke-width:1.05833;stroke-linejoin:round;stroke-opacity:0.298039"
       d="m 848.50507,359.90654 c -0.10172,-0.10189 -0.21649,-0.18991 -0.34117,-0.26199 l -0.86785,-0.50104 c -0.60646,-0.35014 -1.33064,-0.43441 -2.00136,-0.23298 l -2.67205,0.80222 c -0.59781,0.17932 -0.96424,0.78053 -0.84955,1.39402 l 0.29317,1.56447 c 0.0651,0.34815 0.004,0.70794 -0.17345,1.01453 l -3.66688,6.35123 c -0.45439,0.78741 -0.18453,1.79403 0.60284,2.24845 l 1.52783,0.88196 c 0.78716,0.45452 1.79377,0.18498 2.24842,-0.60204 L 848.7667,361.893 c 0.37232,-0.64513 0.26506,-1.45983 -0.26152,-1.98654 z" />
    <path
       id="path763"
       style="font-size:85.3333px;font-family:Phosphate;-inkscape-font-specification:Phosphate;white-space:pre;fill:#ffffff;fill-opacity:1;stroke-width:1.05833;stroke-linejoin:round;stroke-opacity:0.298039"
       d="m 841.37268,409.9987 c -0.10174,-0.10188 -0.2165,-0.1899 -0.34123,-0.26202 l -0.86781,-0.50104 c -0.60649,-0.35015 -1.33067,-0.43436 -2.00138,-0.23291 l -2.67208,0.8022 c -0.59778,0.17932 -0.9642,0.78056 -0.84957,1.394 l 0.29324,1.56442 c 0.0652,0.34816 0.004,0.70801 -0.17345,1.01469 l -3.6669,6.35116 c -0.45442,0.78736 -0.18455,1.79398 0.60283,2.24846 l 1.52787,0.8819 c 0.78713,0.45456 1.79368,0.18503 2.24838,-0.60205 l 6.16171,-10.67233 c 0.37229,-0.64506 0.26501,-1.45983 -0.2615,-1.98654 z" />
    <path
       id="path764"
       style="font-size:85.3333px;font-family:Phosphate;-inkscape-font-specification:Phosphate;white-space:pre;fill:#ffffff;fill-opacity:1;stroke-width:1.05833;stroke-linejoin:round;stroke-opacity:0.298039"
       d="m 848.50529,435.0448 c -0.10174,-0.10189 -0.21651,-0.18991 -0.34117,-0.26197 l -0.86784,-0.50103 c -0.60651,-0.35015 -1.33067,-0.43435 -2.00144,-0.23295 l -2.67205,0.80222 c -0.5978,0.17931 -0.96417,0.78046 -0.84951,1.39399 l 0.29318,1.56441 c 0.0651,0.34797 0.004,0.70804 -0.17345,1.01463 l -3.66689,6.35113 c -0.4544,0.78741 -0.18454,1.79406 0.60279,2.24854 l 1.52784,0.88192 c 0.78719,0.4545 1.79378,0.18499 2.2485,-0.60206 l 6.16168,-10.67235 c 0.37231,-0.6451 0.26501,-1.45976 -0.26156,-1.98656 z" />
    <path
       id="path765"
       style="font-size:85.3333px;font-family:Phosphate;-inkscape-font-specification:Phosphate;white-space:pre;fill:#ffffff;fill-opacity:1;stroke-width:1.05833;stroke-linejoin:round;stroke-opacity:0.298039"
       d="m 834.24036,384.95258 c -0.10174,-0.10188 -0.2165,-0.1899 -0.34117,-0.26197 l -0.86781,-0.50101 c -0.60654,-0.35017 -1.33068,-0.43441 -2.00142,-0.23298 l -2.67208,0.8022 c -0.59782,0.17933 -0.96417,0.78056 -0.84959,1.39404 l 0.29327,1.56445 c 0.0652,0.34795 0.004,0.70795 -0.17349,1.01458 l -3.66686,6.3512 c -0.45446,0.78741 -0.18456,1.79403 0.60277,2.24848 l 1.52782,0.8819 c 0.7872,0.45454 1.79382,0.18505 2.24852,-0.60202 l 6.16168,-10.67236 c 0.3723,-0.64507 0.26499,-1.45981 -0.26157,-1.98653 z" />
    <path
       id="path766"
       style="font-size:85.3333px;font-family:Phosphate;-inkscape-font-specification:Phosphate;white-space:pre;fill:#ffffff;fill-opacity:1;stroke-width:1.05833;stroke-linejoin:round;stroke-opacity:0.298039"
       d="m 834.24039,460.09089 c -0.10181,-0.10181 -0.21647,-0.1899 -0.34113,-0.26193 l -0.86785,-0.50106 c -0.60652,-0.35016 -1.33065,-0.43443 -2.00139,-0.23298 l -2.67213,0.80221 c -0.59778,0.17931 -0.96414,0.78056 -0.8495,1.39402 l 0.29322,1.56445 c 0.0651,0.34817 0.004,0.70796 -0.1735,1.01459 l -3.66686,6.35123 c -0.45445,0.78737 -0.18456,1.794 0.6028,2.24846 l 1.52785,0.88196 c 0.78718,0.45453 1.79376,0.185 2.24842,-0.60211 l 6.16175,-10.67236 c 0.37228,-0.64504 0.26495,-1.45975 -0.26159,-1.9865 z" />
    <path
       id="path767"
       style="font-size:85.3333px;font-family:Phosphate;-inkscape-font-specification:Phosphate;white-space:pre;fill:#ffffff;fill-opacity:1;stroke-width:1.05833;stroke-linejoin:round;stroke-opacity:0.298039"
       d="m 841.37267,485.13703 c -0.10181,-0.10181 -0.2165,-0.18991 -0.34118,-0.26199 l -0.86784,-0.50101 c -0.60649,-0.35015 -1.33064,-0.4344 -2.00138,-0.23293 l -2.67211,0.80218 c -0.5978,0.17932 -0.96417,0.78048 -0.84953,1.39402 l 0.29322,1.56446 c 0.0652,0.34815 0.004,0.70793 -0.17347,1.0146 l -3.66691,6.35119 c -0.4544,0.78731 -0.18449,1.794 0.60284,2.24843 l 1.52784,0.88193 c 0.78716,0.45455 1.79377,0.18505 2.24842,-0.60202 l 6.16171,-10.67244 c 0.37228,-0.64502 0.26502,-1.45973 -0.26154,-1.98651 z" />
    <path
       id="path768"
       style="font-size:85.3333px;font-family:Phosphate;-inkscape-font-specification:Phosphate;white-space:pre;fill:#ffffff;fill-opacity:1;stroke-width:1.05833;stroke-linejoin:round;stroke-opacity:0.298039"
       d="m 848.50517,510.18315 c -0.10174,-0.10189 -0.21651,-0.18991 -0.34117,-0.26198 l -0.8678,-0.50105 c -0.60655,-0.35018 -1.33068,-0.4344 -2.00141,-0.23294 l -2.67213,0.80219 c -0.5978,0.17934 -0.96416,0.78052 -0.84946,1.39398 l 0.29313,1.56451 c 0.0652,0.3479 0.004,0.70794 -0.17344,1.01456 l -3.66688,6.35118 c -0.45438,0.78735 -0.18453,1.79404 0.60282,2.24845 l 1.52784,0.88196 c 0.78721,0.45457 1.79377,0.185 2.24841,-0.60205 l 6.16176,-10.67234 c 0.37229,-0.64505 0.26496,-1.45978 -0.2616,-1.98657 z" />
    <path
       id="path770"
       style="font-size:85.3333px;font-family:Phosphate;-inkscape-font-specification:Phosphate;white-space:pre;fill:#ffffff;fill-opacity:1;stroke-width:1.05833;stroke-linejoin:round;stroke-opacity:0.298039"
       d="m 856.86373,309.81431 c -0.10172,-0.10188 -0.21651,-0.18991 -0.34119,-0.26199 l -0.86782,-0.50097 c -0.60653,-0.35017 -1.33069,-0.43445 -2.00145,-0.23295 l -2.67204,0.80215 c -0.59782,0.17932 -0.96417,0.78055 -0.84955,1.39401 l 0.29324,1.56448 c 0.0651,0.34816 0.004,0.70794 -0.17351,1.01461 l -3.66687,6.35116 c -0.45441,0.78735 -0.18454,1.79404 0.60284,2.24845 l 1.52781,0.88194 c 0.78715,0.45454 1.79375,0.18504 2.24849,-0.60203 l 6.16164,-10.67237 c 0.3723,-0.64509 0.26501,-1.45978 -0.26154,-1.98655 z" />
    <path
       id="path771"
       style="font-size:85.3333px;font-family:Phosphate;-inkscape-font-specification:Phosphate;white-space:pre;fill:#ffffff;fill-opacity:1;stroke-width:1.05833;stroke-linejoin:round;stroke-opacity:0.298039"
       d="m 863.99628,334.86052 c -0.10174,-0.10189 -0.21647,-0.1899 -0.34119,-0.26199 l -0.86778,-0.50106 c -0.60651,-0.35015 -1.33069,-0.43439 -2.00143,-0.23299 l -2.67208,0.80224 c -0.59779,0.17931 -0.96418,0.78053 -0.84953,1.39403 l 0.29323,1.56443 c 0.0652,0.34814 0.004,0.70797 -0.17348,1.01461 l -3.66689,6.35119 c -0.45441,0.78736 -0.18454,1.79402 0.60281,2.24848 l 1.52784,0.8819 c 0.78714,0.45455 1.79376,0.18502 2.24846,-0.60205 l 6.16167,-10.67236 c 0.37231,-0.64509 0.26504,-1.45977 -0.26152,-1.98655 z" />
    <path
       id="path772"
       style="font-size:85.3333px;font-family:Phosphate;-inkscape-font-specification:Phosphate;white-space:pre;fill:#ffffff;fill-opacity:1;stroke-width:1.05833;stroke-linejoin:round;stroke-opacity:0.298039"
       d="m 871.12861,359.90654 c -0.10172,-0.10189 -0.21649,-0.18991 -0.34117,-0.26199 l -0.86785,-0.50104 c -0.60646,-0.35014 -1.33064,-0.43441 -2.00136,-0.23298 l -2.67205,0.80222 c -0.59781,0.17932 -0.96424,0.78053 -0.84955,1.39402 l 0.29317,1.56447 c 0.0651,0.34815 0.004,0.70794 -0.17345,1.01453 l -3.66688,6.35123 c -0.45439,0.78741 -0.18453,1.79403 0.60284,2.24845 l 1.52783,0.88196 c 0.78716,0.45452 1.79377,0.18498 2.24842,-0.60204 l 6.16168,-10.67237 c 0.37232,-0.64513 0.26506,-1.45983 -0.26152,-1.98654 z" />
    <path
       id="path773"
       style="font-size:85.3333px;font-family:Phosphate;-inkscape-font-specification:Phosphate;white-space:pre;fill:#ffffff;fill-opacity:1;stroke-width:1.05833;stroke-linejoin:round;stroke-opacity:0.298039"
       d="m 863.99624,409.9987 c -0.10174,-0.10188 -0.2165,-0.1899 -0.34123,-0.26202 l -0.86781,-0.50104 c -0.60649,-0.35015 -1.33067,-0.43436 -2.00138,-0.23291 l -2.67208,0.8022 c -0.59778,0.17932 -0.9642,0.78056 -0.84957,1.394 l 0.29324,1.56442 c 0.0652,0.34816 0.004,0.70801 -0.17345,1.01469 l -3.6669,6.35116 c -0.45442,0.78736 -0.18455,1.79398 0.60283,2.24846 l 1.52787,0.8819 c 0.78713,0.45456 1.79368,0.18503 2.24838,-0.60205 l 6.16171,-10.67233 c 0.37229,-0.64506 0.26501,-1.45983 -0.2615,-1.98654 z" />
    <path
       id="path774"
       style="font-size:85.3333px;font-family:Phosphate;-inkscape-font-specification:Phosphate;white-space:pre;fill:#ffffff;fill-opacity:1;stroke-width:1.05833;stroke-linejoin:round;stroke-opacity:0.298039"
       d="m 871.12887,435.0448 c -0.10174,-0.10189 -0.21651,-0.18991 -0.34117,-0.26197 l -0.86784,-0.50103 c -0.60651,-0.35015 -1.33067,-0.43435 -2.00144,-0.23295 l -2.67205,0.80222 c -0.5978,0.17931 -0.96417,0.78046 -0.84951,1.39399 l 0.29318,1.56441 c 0.0651,0.34797 0.004,0.70804 -0.17345,1.01463 l -3.66689,6.35113 c -0.4544,0.78741 -0.18454,1.79406 0.60279,2.24854 l 1.52784,0.88192 c 0.78719,0.4545 1.79378,0.18499 2.2485,-0.60206 l 6.16168,-10.67235 c 0.37231,-0.6451 0.26501,-1.45976 -0.26156,-1.98656 z" />
    <path
       id="path775"
       style="font-size:85.3333px;font-family:Phosphate;-inkscape-font-specification:Phosphate;white-space:pre;fill:#ffffff;fill-opacity:1;stroke-width:1.05833;stroke-linejoin:round;stroke-opacity:0.298039"
       d="m 856.86394,384.95258 c -0.10174,-0.10188 -0.2165,-0.1899 -0.34117,-0.26197 l -0.86781,-0.50101 c -0.60654,-0.35017 -1.33068,-0.43441 -2.00142,-0.23298 l -2.67208,0.8022 c -0.59782,0.17933 -0.96417,0.78056 -0.84959,1.39404 l 0.29327,1.56445 c 0.0652,0.34795 0.004,0.70795 -0.17349,1.01458 l -3.66686,6.3512 c -0.45446,0.78741 -0.18456,1.79403 0.60277,2.24848 l 1.52782,0.8819 c 0.7872,0.45454 1.79382,0.18505 2.24852,-0.60202 l 6.16168,-10.67236 c 0.3723,-0.64507 0.26499,-1.45981 -0.26157,-1.98653 z" />
    <path
       id="path776"
       style="font-size:85.3333px;font-family:Phosphate;-inkscape-font-specification:Phosphate;white-space:pre;fill:#ffffff;fill-opacity:1;stroke-width:1.05833;stroke-linejoin:round;stroke-opacity:0.298039"
       d="m 856.86397,460.09089 c -0.10181,-0.10181 -0.21647,-0.1899 -0.34113,-0.26193 l -0.86785,-0.50106 c -0.60652,-0.35016 -1.33065,-0.43443 -2.00139,-0.23298 l -2.67213,0.80221 c -0.59778,0.17931 -0.96414,0.78056 -0.8495,1.39402 l 0.29322,1.56445 c 0.0651,0.34817 0.004,0.70796 -0.1735,1.01459 l -3.66686,6.35123 c -0.45445,0.78737 -0.18456,1.794 0.6028,2.24846 l 1.52785,0.88196 c 0.78718,0.45453 1.79376,0.185 2.24842,-0.60211 l 6.16175,-10.67236 c 0.37228,-0.64504 0.26495,-1.45975 -0.26159,-1.9865 z" />
    <path
       id="path777"
       style="font-size:85.3333px;font-family:Phosphate;-inkscape-font-specification:Phosphate;white-space:pre;fill:#ffffff;fill-opacity:1;stroke-width:1.05833;stroke-linejoin:round;stroke-opacity:0.298039"
       d="m 863.99623,485.13703 c -0.10181,-0.10181 -0.2165,-0.18991 -0.34118,-0.26199 l -0.86784,-0.50101 c -0.60649,-0.35015 -1.33064,-0.4344 -2.00138,-0.23293 l -2.67211,0.80218 c -0.5978,0.17932 -0.96417,0.78048 -0.84953,1.39402 l 0.29322,1.56446 c 0.0652,0.34815 0.004,0.70793 -0.17347,1.0146 l -3.66691,6.35119 c -0.4544,0.78731 -0.18449,1.794 0.60284,2.24843 l 1.52784,0.88193 c 0.78716,0.45455 1.79377,0.18505 2.24842,-0.60202 l 6.16171,-10.67244 c 0.37228,-0.64502 0.26502,-1.45973 -0.26154,-1.98651 z" />
    <path
       id="path778"
       style="font-size:85.3333px;font-family:Phosphate;-inkscape-font-specification:Phosphate;white-space:pre;fill:#ffffff;fill-opacity:1;stroke-width:1.05833;stroke-linejoin:round;stroke-opacity:0.298039"
       d="m 871.12873,510.18315 c -0.10174,-0.10189 -0.21651,-0.18991 -0.34117,-0.26198 l -0.8678,-0.50105 c -0.60655,-0.35018 -1.33068,-0.4344 -2.00141,-0.23294 l -2.67213,0.80219 c -0.5978,0.17934 -0.96416,0.78052 -0.84946,1.39398 l 0.29313,1.56451 c 0.0652,0.3479 0.004,0.70794 -0.17344,1.01456 l -3.66688,6.35118 c -0.45438,0.78735 -0.18453,1.79404 0.60282,2.24845 l 1.52784,0.88196 c 0.78721,0.45457 1.79377,0.185 2.24841,-0.60205 l 6.16176,-10.67234 c 0.37229,-0.64505 0.26496,-1.45978 -0.2616,-1.98657 z" />
    <path
       id="path780"
       style="font-size:85.3333px;font-family:Phosphate;-inkscape-font-specification:Phosphate;white-space:pre;fill:#ffffff;fill-opacity:1;stroke-width:1.05833;stroke-linejoin:round;stroke-opacity:0.298039"
       d="m 879.48727,309.81431 c -0.10172,-0.10188 -0.21651,-0.18991 -0.34119,-0.26199 l -0.86782,-0.50097 c -0.60653,-0.35017 -1.33069,-0.43445 -2.00145,-0.23295 l -2.67204,0.80215 c -0.59782,0.17932 -0.96417,0.78055 -0.84955,1.39401 l 0.29324,1.56448 c 0.0651,0.34816 0.004,0.70794 -0.17351,1.01461 l -3.66687,6.35116 c -0.45441,0.78735 -0.18454,1.79404 0.60284,2.24845 l 1.52781,0.88194 c 0.78715,0.45454 1.79375,0.18504 2.24849,-0.60203 l 6.16164,-10.67237 c 0.3723,-0.64509 0.26501,-1.45978 -0.26154,-1.98655 z" />
    <path
       id="path781"
       style="font-size:85.3333px;font-family:Phosphate;-inkscape-font-specification:Phosphate;white-space:pre;fill:#ffffff;fill-opacity:1;stroke-width:1.05833;stroke-linejoin:round;stroke-opacity:0.298039"
       d="m 886.61984,334.86052 c -0.10174,-0.10189 -0.21647,-0.1899 -0.34119,-0.26199 l -0.86778,-0.50106 c -0.60651,-0.35015 -1.33069,-0.43439 -2.00143,-0.23299 l -2.67208,0.80224 c -0.59779,0.17931 -0.96418,0.78053 -0.84953,1.39403 l 0.29323,1.56443 c 0.0652,0.34814 0.004,0.70797 -0.17348,1.01461 l -3.66689,6.35119 c -0.45441,0.78736 -0.18454,1.79402 0.60281,2.24848 l 1.52784,0.8819 c 0.78714,0.45455 1.79376,0.18502 2.24846,-0.60205 l 6.16167,-10.67236 c 0.37231,-0.64509 0.26504,-1.45977 -0.26152,-1.98655 z" />
    <path
       id="path782"
       style="font-size:85.3333px;font-family:Phosphate;-inkscape-font-specification:Phosphate;white-space:pre;fill:#ffffff;fill-opacity:1;stroke-width:1.05833;stroke-linejoin:round;stroke-opacity:0.298039"
       d="m 893.75216,359.90654 c -0.10172,-0.10189 -0.21649,-0.18991 -0.34117,-0.26199 l -0.86785,-0.50104 c -0.60646,-0.35014 -1.33064,-0.43441 -2.00136,-0.23298 l -2.67205,0.80222 c -0.59781,0.17932 -0.96424,0.78053 -0.84955,1.39402 l 0.29317,1.56447 c 0.0651,0.34815 0.004,0.70794 -0.17345,1.01453 l -3.66688,6.35123 c -0.45439,0.78741 -0.18453,1.79403 0.60284,2.24845 l 1.52783,0.88196 c 0.78716,0.45452 1.79377,0.18498 2.24842,-0.60204 l 6.16168,-10.67237 c 0.37232,-0.64513 0.26506,-1.45983 -0.26152,-1.98654 z" />
    <path
       id="path783"
       style="font-size:85.3333px;font-family:Phosphate;-inkscape-font-specification:Phosphate;white-space:pre;fill:#ffffff;fill-opacity:1;stroke-width:1.05833;stroke-linejoin:round;stroke-opacity:0.298039"
       d="m 886.6198,409.9987 c -0.10174,-0.10188 -0.2165,-0.1899 -0.34123,-0.26202 l -0.86781,-0.50104 c -0.60649,-0.35015 -1.33067,-0.43436 -2.00138,-0.23291 l -2.67208,0.8022 c -0.59778,0.17932 -0.9642,0.78056 -0.84957,1.394 l 0.29324,1.56442 c 0.0652,0.34816 0.004,0.70801 -0.17345,1.01469 l -3.6669,6.35116 c -0.45442,0.78736 -0.18455,1.79398 0.60283,2.24846 l 1.52787,0.8819 c 0.78713,0.45456 1.79368,0.18503 2.24838,-0.60205 l 6.16171,-10.67233 c 0.37229,-0.64506 0.26501,-1.45983 -0.2615,-1.98654 z" />
    <path
       id="path784"
       style="font-size:85.3333px;font-family:Phosphate;-inkscape-font-specification:Phosphate;white-space:pre;fill:#ffffff;fill-opacity:1;stroke-width:1.05833;stroke-linejoin:round;stroke-opacity:0.298039"
       d="m 893.75245,435.0448 c -0.10174,-0.10189 -0.21651,-0.18991 -0.34117,-0.26197 l -0.86784,-0.50103 c -0.60651,-0.35015 -1.33067,-0.43435 -2.00144,-0.23295 l -2.67205,0.80222 c -0.5978,0.17931 -0.96417,0.78046 -0.84951,1.39399 l 0.29318,1.56441 c 0.0651,0.34797 0.004,0.70804 -0.17345,1.01463 l -3.66689,6.35113 c -0.4544,0.78741 -0.18454,1.79406 0.60279,2.24854 l 1.52784,0.88192 c 0.78719,0.4545 1.79378,0.18499 2.2485,-0.60206 l 6.16168,-10.67235 c 0.37231,-0.6451 0.26501,-1.45976 -0.26156,-1.98656 z" />
    <path
       id="path785"
       style="font-size:85.3333px;font-family:Phosphate;-inkscape-font-specification:Phosphate;white-space:pre;fill:#ffffff;fill-opacity:1;stroke-width:1.05833;stroke-linejoin:round;stroke-opacity:0.298039"
       d="m 879.48752,384.95258 c -0.10174,-0.10188 -0.2165,-0.1899 -0.34117,-0.26197 l -0.86781,-0.50101 c -0.60654,-0.35017 -1.33068,-0.43441 -2.00142,-0.23298 l -2.67208,0.8022 c -0.59782,0.17933 -0.96417,0.78056 -0.84959,1.39404 l 0.29327,1.56445 c 0.0652,0.34795 0.004,0.70795 -0.17349,1.01458 l -3.66686,6.3512 c -0.45446,0.78741 -0.18456,1.79403 0.60277,2.24848 l 1.52782,0.8819 c 0.7872,0.45454 1.79382,0.18505 2.24852,-0.60202 l 6.16168,-10.67236 c 0.3723,-0.64507 0.26499,-1.45981 -0.26157,-1.98653 z" />
    <path
       id="path786"
       style="font-size:85.3333px;font-family:Phosphate;-inkscape-font-specification:Phosphate;white-space:pre;fill:#ffffff;fill-opacity:1;stroke-width:1.05833;stroke-linejoin:round;stroke-opacity:0.298039"
       d="m 879.48755,460.09089 c -0.10181,-0.10181 -0.21647,-0.1899 -0.34113,-0.26193 l -0.86785,-0.50106 c -0.60652,-0.35016 -1.33065,-0.43443 -2.00139,-0.23298 l -2.67213,0.80221 c -0.59778,0.17931 -0.96414,0.78056 -0.8495,1.39402 l 0.29322,1.56445 c 0.0651,0.34817 0.004,0.70796 -0.1735,1.01459 l -3.66686,6.35123 c -0.45445,0.78737 -0.18456,1.794 0.6028,2.24846 l 1.52785,0.88196 c 0.78718,0.45453 1.79376,0.185 2.24842,-0.60211 l 6.16175,-10.67236 c 0.37228,-0.64504 0.26495,-1.45975 -0.26159,-1.9865 z" />
    <path
       id="path787"
       style="font-size:85.3333px;font-family:Phosphate;-inkscape-font-specification:Phosphate;white-space:pre;fill:#ffffff;fill-opacity:1;stroke-width:1.05833;stroke-linejoin:round;stroke-opacity:0.298039"
       d="m 886.61978,485.13703 c -0.10181,-0.10181 -0.2165,-0.18991 -0.34118,-0.26199 l -0.86784,-0.50101 c -0.60649,-0.35015 -1.33064,-0.4344 -2.00138,-0.23293 l -2.67211,0.80218 c -0.5978,0.17932 -0.96417,0.78048 -0.84953,1.39402 l 0.29322,1.56446 c 0.0652,0.34815 0.004,0.70793 -0.17347,1.0146 l -3.66691,6.35119 c -0.4544,0.78731 -0.18449,1.794 0.60284,2.24843 l 1.52784,0.88193 c 0.78716,0.45455 1.79377,0.18505 2.24842,-0.60202 l 6.16171,-10.67244 c 0.37228,-0.64502 0.26502,-1.45973 -0.26154,-1.98651 z" />
    <path
       id="path788"
       style="font-size:85.3333px;font-family:Phosphate;-inkscape-font-specification:Phosphate;white-space:pre;fill:#ffffff;fill-opacity:1;stroke-width:1.05833;stroke-linejoin:round;stroke-opacity:0.298039"
       d="m 893.75229,510.18315 c -0.10174,-0.10189 -0.21651,-0.18991 -0.34117,-0.26198 l -0.8678,-0.50105 c -0.60655,-0.35018 -1.33068,-0.4344 -2.00141,-0.23294 l -2.67213,0.80219 c -0.5978,0.17934 -0.96416,0.78052 -0.84946,1.39398 l 0.29313,1.56451 c 0.0652,0.3479 0.004,0.70794 -0.17344,1.01456 l -3.66688,6.35118 c -0.45438,0.78735 -0.18453,1.79404 0.60282,2.24845 l 1.52784,0.88196 c 0.78721,0.45457 1.79377,0.185 2.24841,-0.60205 l 6.16176,-10.67234 c 0.37229,-0.64505 0.26496,-1.45978 -0.2616,-1.98657 z" />
    <path
       id="path790"
       style="font-size:85.3333px;font-family:Phosphate;-inkscape-font-specification:Phosphate;white-space:pre;fill:#ffffff;fill-opacity:1;stroke-width:1.05833;stroke-linejoin:round;stroke-opacity:0.298039"
       d="m 902.11082,309.81431 c -0.10172,-0.10188 -0.21651,-0.18991 -0.34119,-0.26199 l -0.86782,-0.50097 c -0.60653,-0.35017 -1.33069,-0.43445 -2.00145,-0.23295 l -2.67204,0.80215 c -0.59782,0.17932 -0.96417,0.78055 -0.84955,1.39401 l 0.29324,1.56448 c 0.0651,0.34816 0.004,0.70794 -0.17351,1.01461 l -3.66687,6.35116 c -0.45441,0.78735 -0.18454,1.79404 0.60284,2.24845 l 1.52781,0.88194 c 0.78715,0.45454 1.79375,0.18504 2.24849,-0.60203 l 6.16164,-10.67237 c 0.3723,-0.64509 0.26501,-1.45978 -0.26154,-1.98655 z" />
    <path
       id="path791"
       style="font-size:85.3333px;font-family:Phosphate;-inkscape-font-specification:Phosphate;white-space:pre;fill:#ffffff;fill-opacity:1;stroke-width:1.05833;stroke-linejoin:round;stroke-opacity:0.298039"
       d="m 909.2434,334.86052 c -0.10174,-0.10189 -0.21647,-0.1899 -0.34119,-0.26199 l -0.86778,-0.50106 c -0.60651,-0.35015 -1.33069,-0.43439 -2.00143,-0.23299 l -2.67208,0.80224 c -0.59779,0.17931 -0.96418,0.78053 -0.84953,1.39403 l 0.29323,1.56443 c 0.0652,0.34814 0.004,0.70797 -0.17348,1.01461 l -3.66689,6.35119 c -0.45441,0.78736 -0.18454,1.79402 0.60281,2.24848 l 1.52784,0.8819 c 0.78714,0.45455 1.79376,0.18502 2.24846,-0.60205 l 6.16167,-10.67236 c 0.37231,-0.64509 0.26504,-1.45977 -0.26152,-1.98655 z" />
    <path
       id="path792"
       style="font-size:85.3333px;font-family:Phosphate;-inkscape-font-specification:Phosphate;white-space:pre;fill:#ffffff;fill-opacity:1;stroke-width:1.05833;stroke-linejoin:round;stroke-opacity:0.298039"
       d="m 916.37571,359.90654 c -0.10172,-0.10189 -0.21649,-0.18991 -0.34117,-0.26199 l -0.86785,-0.50104 c -0.60646,-0.35014 -1.33064,-0.43441 -2.00136,-0.23298 l -2.67205,0.80222 c -0.59781,0.17932 -0.96424,0.78053 -0.84955,1.39402 l 0.29317,1.56447 c 0.0651,0.34815 0.004,0.70794 -0.17345,1.01453 l -3.66688,6.35123 c -0.45439,0.78741 -0.18453,1.79403 0.60284,2.24845 l 1.52783,0.88196 c 0.78716,0.45452 1.79377,0.18498 2.24842,-0.60204 l 6.16168,-10.67237 c 0.37232,-0.64513 0.26506,-1.45983 -0.26152,-1.98654 z" />
    <path
       id="path793"
       style="font-size:85.3333px;font-family:Phosphate;-inkscape-font-specification:Phosphate;white-space:pre;fill:#ffffff;fill-opacity:1;stroke-width:1.05833;stroke-linejoin:round;stroke-opacity:0.298039"
       d="m 909.24336,409.9987 c -0.10174,-0.10188 -0.2165,-0.1899 -0.34123,-0.26202 l -0.86781,-0.50104 c -0.60649,-0.35015 -1.33067,-0.43436 -2.00138,-0.23291 l -2.67208,0.8022 c -0.59778,0.17932 -0.9642,0.78056 -0.84957,1.394 l 0.29324,1.56442 c 0.0652,0.34816 0.004,0.70801 -0.17345,1.01469 l -3.6669,6.35116 c -0.45442,0.78736 -0.18455,1.79398 0.60283,2.24846 l 1.52787,0.8819 c 0.78713,0.45456 1.79368,0.18503 2.24838,-0.60205 l 6.16171,-10.67233 c 0.37229,-0.64506 0.26501,-1.45983 -0.2615,-1.98654 z" />
    <path
       id="path794"
       style="font-size:85.3333px;font-family:Phosphate;-inkscape-font-specification:Phosphate;white-space:pre;fill:#ffffff;fill-opacity:1;stroke-width:1.05833;stroke-linejoin:round;stroke-opacity:0.298039"
       d="m 916.37602,435.0448 c -0.10174,-0.10189 -0.21651,-0.18991 -0.34117,-0.26197 l -0.86784,-0.50103 c -0.60651,-0.35015 -1.33067,-0.43435 -2.00144,-0.23295 l -2.67205,0.80222 c -0.5978,0.17931 -0.96417,0.78046 -0.84951,1.39399 l 0.29318,1.56441 c 0.0651,0.34797 0.004,0.70804 -0.17345,1.01463 l -3.66689,6.35113 c -0.4544,0.78741 -0.18454,1.79406 0.60279,2.24854 l 1.52784,0.88192 c 0.78719,0.4545 1.79378,0.18499 2.2485,-0.60206 l 6.16168,-10.67235 c 0.37231,-0.6451 0.26501,-1.45976 -0.26156,-1.98656 z" />
    <path
       id="path795"
       style="font-size:85.3333px;font-family:Phosphate;-inkscape-font-specification:Phosphate;white-space:pre;fill:#ffffff;fill-opacity:1;stroke-width:1.05833;stroke-linejoin:round;stroke-opacity:0.298039"
       d="m 902.11109,384.95258 c -0.10174,-0.10188 -0.2165,-0.1899 -0.34117,-0.26197 l -0.86781,-0.50101 c -0.60654,-0.35017 -1.33068,-0.43441 -2.00142,-0.23298 l -2.67208,0.8022 c -0.59782,0.17933 -0.96417,0.78056 -0.84959,1.39404 l 0.29327,1.56445 c 0.0652,0.34795 0.004,0.70795 -0.17349,1.01458 l -3.66686,6.3512 c -0.45446,0.78741 -0.18456,1.79403 0.60277,2.24848 l 1.52782,0.8819 c 0.7872,0.45454 1.79382,0.18505 2.24852,-0.60202 l 6.16168,-10.67236 c 0.3723,-0.64507 0.26499,-1.45981 -0.26157,-1.98653 z" />
    <path
       id="path796"
       style="font-size:85.3333px;font-family:Phosphate;-inkscape-font-specification:Phosphate;white-space:pre;fill:#ffffff;fill-opacity:1;stroke-width:1.05833;stroke-linejoin:round;stroke-opacity:0.298039"
       d="m 902.11113,460.09089 c -0.10181,-0.10181 -0.21647,-0.1899 -0.34113,-0.26193 l -0.86785,-0.50106 c -0.60652,-0.35016 -1.33065,-0.43443 -2.00139,-0.23298 l -2.67213,0.80221 c -0.59778,0.17931 -0.96414,0.78056 -0.8495,1.39402 l 0.29322,1.56445 c 0.0651,0.34817 0.004,0.70796 -0.1735,1.01459 l -3.66686,6.35123 c -0.45445,0.78737 -0.18456,1.794 0.6028,2.24846 l 1.52785,0.88196 c 0.78718,0.45453 1.79376,0.185 2.24842,-0.60211 l 6.16175,-10.67236 c 0.37228,-0.64504 0.26495,-1.45975 -0.26159,-1.9865 z" />
    <path
       id="path797"
       style="font-size:85.3333px;font-family:Phosphate;-inkscape-font-specification:Phosphate;white-space:pre;fill:#ffffff;fill-opacity:1;stroke-width:1.05833;stroke-linejoin:round;stroke-opacity:0.298039"
       d="m 909.24333,485.13703 c -0.10181,-0.10181 -0.2165,-0.18991 -0.34118,-0.26199 l -0.86784,-0.50101 c -0.60649,-0.35015 -1.33064,-0.4344 -2.00138,-0.23293 l -2.67211,0.80218 c -0.5978,0.17932 -0.96417,0.78048 -0.84953,1.39402 l 0.29322,1.56446 c 0.0652,0.34815 0.004,0.70793 -0.17347,1.0146 l -3.66691,6.35119 c -0.4544,0.78731 -0.18449,1.794 0.60284,2.24843 l 1.52784,0.88193 c 0.78716,0.45455 1.79377,0.18505 2.24842,-0.60202 l 6.16171,-10.67244 c 0.37228,-0.64502 0.26502,-1.45973 -0.26154,-1.98651 z" />
    <path
       id="path798"
       style="font-size:85.3333px;font-family:Phosphate;-inkscape-font-specification:Phosphate;white-space:pre;fill:#ffffff;fill-opacity:1;stroke-width:1.05833;stroke-linejoin:round;stroke-opacity:0.298039"
       d="m 916.37585,510.18315 c -0.10174,-0.10189 -0.21651,-0.18991 -0.34117,-0.26198 l -0.8678,-0.50105 c -0.60655,-0.35018 -1.33068,-0.4344 -2.00141,-0.23294 l -2.67213,0.80219 c -0.5978,0.17934 -0.96416,0.78052 -0.84946,1.39398 l 0.29313,1.56451 c 0.0652,0.3479 0.004,0.70794 -0.17344,1.01456 l -3.66688,6.35118 c -0.45438,0.78735 -0.18453,1.79404 0.60282,2.24845 l 1.52784,0.88196 c 0.78721,0.45457 1.79377,0.185 2.24841,-0.60205 l 6.16176,-10.67234 c 0.37229,-0.64505 0.26496,-1.45978 -0.2616,-1.98657 z" />
    <path
       id="path800"
       style="font-size:85.3333px;font-family:Phosphate;-inkscape-font-specification:Phosphate;white-space:pre;fill:#ffffff;fill-opacity:1;stroke-width:1.05833;stroke-linejoin:round;stroke-opacity:0.298039"
       d="m 924.73436,309.81431 c -0.10172,-0.10188 -0.21651,-0.18991 -0.34119,-0.26199 l -0.86782,-0.50097 c -0.60653,-0.35017 -1.33069,-0.43445 -2.00145,-0.23295 l -2.67204,0.80215 c -0.59782,0.17932 -0.96417,0.78055 -0.84955,1.39401 l 0.29324,1.56448 c 0.0651,0.34816 0.004,0.70794 -0.17351,1.01461 l -3.66687,6.35116 c -0.45441,0.78735 -0.18454,1.79404 0.60284,2.24845 l 1.52781,0.88194 c 0.78715,0.45454 1.79375,0.18504 2.24849,-0.60203 l 6.16164,-10.67237 c 0.3723,-0.64509 0.26501,-1.45978 -0.26154,-1.98655 z" />
    <path
       id="path801"
       style="font-size:85.3333px;font-family:Phosphate;-inkscape-font-specification:Phosphate;white-space:pre;fill:#ffffff;fill-opacity:1;stroke-width:1.05833;stroke-linejoin:round;stroke-opacity:0.298039"
       d="m 931.86696,334.86052 c -0.10174,-0.10189 -0.21647,-0.1899 -0.34119,-0.26199 l -0.86778,-0.50106 c -0.60651,-0.35015 -1.33069,-0.43439 -2.00143,-0.23299 l -2.67208,0.80224 c -0.59779,0.17931 -0.96418,0.78053 -0.84953,1.39403 l 0.29323,1.56443 c 0.0652,0.34814 0.004,0.70797 -0.17348,1.01461 l -3.66689,6.35119 c -0.45441,0.78736 -0.18454,1.79402 0.60281,2.24848 l 1.52784,0.8819 c 0.78714,0.45455 1.79376,0.18502 2.24846,-0.60205 l 6.16167,-10.67236 c 0.37231,-0.64509 0.26504,-1.45977 -0.26152,-1.98655 z" />
    <path
       id="path802"
       style="font-size:85.3333px;font-family:Phosphate;-inkscape-font-specification:Phosphate;white-space:pre;fill:#ffffff;fill-opacity:1;stroke-width:1.05833;stroke-linejoin:round;stroke-opacity:0.298039"
       d="m 938.99926,359.90654 c -0.10172,-0.10189 -0.21649,-0.18991 -0.34117,-0.26199 l -0.86785,-0.50104 c -0.60646,-0.35014 -1.33064,-0.43441 -2.00136,-0.23298 l -2.67205,0.80222 c -0.59781,0.17932 -0.96424,0.78053 -0.84955,1.39402 l 0.29317,1.56447 c 0.0651,0.34815 0.004,0.70794 -0.17345,1.01453 l -3.66688,6.35123 c -0.45439,0.78741 -0.18453,1.79403 0.60284,2.24845 l 1.52783,0.88196 c 0.78716,0.45452 1.79377,0.18498 2.24842,-0.60204 l 6.16168,-10.67237 c 0.37232,-0.64513 0.26506,-1.45983 -0.26152,-1.98654 z" />
    <path
       id="path803"
       style="font-size:85.3333px;font-family:Phosphate;-inkscape-font-specification:Phosphate;white-space:pre;fill:#ffffff;fill-opacity:1;stroke-width:1.05833;stroke-linejoin:round;stroke-opacity:0.298039"
       d="m 931.86692,409.9987 c -0.10174,-0.10188 -0.2165,-0.1899 -0.34123,-0.26202 l -0.86781,-0.50104 c -0.60649,-0.35015 -1.33067,-0.43436 -2.00138,-0.23291 l -2.67208,0.8022 c -0.59778,0.17932 -0.9642,0.78056 -0.84957,1.394 l 0.29324,1.56442 c 0.0652,0.34816 0.004,0.70801 -0.17345,1.01469 l -3.6669,6.35116 c -0.45442,0.78736 -0.18455,1.79398 0.60283,2.24846 l 1.52787,0.8819 c 0.78713,0.45456 1.79368,0.18503 2.24838,-0.60205 l 6.16171,-10.67233 c 0.37229,-0.64506 0.26501,-1.45983 -0.2615,-1.98654 z" />
    <path
       id="path804"
       style="font-size:85.3333px;font-family:Phosphate;-inkscape-font-specification:Phosphate;white-space:pre;fill:#ffffff;fill-opacity:1;stroke-width:1.05833;stroke-linejoin:round;stroke-opacity:0.298039"
       d="m 938.9996,435.0448 c -0.10174,-0.10189 -0.21651,-0.18991 -0.34117,-0.26197 l -0.86784,-0.50103 c -0.60651,-0.35015 -1.33067,-0.43435 -2.00144,-0.23295 l -2.67205,0.80222 c -0.5978,0.17931 -0.96417,0.78046 -0.84951,1.39399 l 0.29318,1.56441 c 0.0651,0.34797 0.004,0.70804 -0.17345,1.01463 l -3.66689,6.35113 c -0.4544,0.78741 -0.18454,1.79406 0.60279,2.24854 l 1.52784,0.88192 c 0.78719,0.4545 1.79378,0.18499 2.2485,-0.60206 l 6.16168,-10.67235 c 0.37231,-0.6451 0.26501,-1.45976 -0.26156,-1.98656 z" />
    <path
       id="path805"
       style="font-size:85.3333px;font-family:Phosphate;-inkscape-font-specification:Phosphate;white-space:pre;fill:#ffffff;fill-opacity:1;stroke-width:1.05833;stroke-linejoin:round;stroke-opacity:0.298039"
       d="m 924.73467,384.95258 c -0.10174,-0.10188 -0.2165,-0.1899 -0.34117,-0.26197 l -0.86781,-0.50101 c -0.60654,-0.35017 -1.33068,-0.43441 -2.00142,-0.23298 l -2.67208,0.8022 c -0.59782,0.17933 -0.96417,0.78056 -0.84959,1.39404 l 0.29327,1.56445 c 0.0652,0.34795 0.004,0.70795 -0.17349,1.01458 l -3.66686,6.3512 c -0.45446,0.78741 -0.18456,1.79403 0.60277,2.24848 l 1.52782,0.8819 c 0.7872,0.45454 1.79382,0.18505 2.24852,-0.60202 l 6.16168,-10.67236 c 0.3723,-0.64507 0.26499,-1.45981 -0.26157,-1.98653 z" />
    <path
       id="path806"
       style="font-size:85.3333px;font-family:Phosphate;-inkscape-font-specification:Phosphate;white-space:pre;fill:#ffffff;fill-opacity:1;stroke-width:1.05833;stroke-linejoin:round;stroke-opacity:0.298039"
       d="m 924.73471,460.09089 c -0.10181,-0.10181 -0.21647,-0.1899 -0.34113,-0.26193 l -0.86785,-0.50106 c -0.60652,-0.35016 -1.33065,-0.43443 -2.00139,-0.23298 l -2.67213,0.80221 c -0.59778,0.17931 -0.96414,0.78056 -0.8495,1.39402 l 0.29322,1.56445 c 0.0651,0.34817 0.004,0.70796 -0.1735,1.01459 l -3.66686,6.35123 c -0.45445,0.78737 -0.18456,1.794 0.6028,2.24846 l 1.52785,0.88196 c 0.78718,0.45453 1.79376,0.185 2.24842,-0.60211 l 6.16175,-10.67236 c 0.37228,-0.64504 0.26495,-1.45975 -0.26159,-1.9865 z" />
    <path
       id="path807"
       style="font-size:85.3333px;font-family:Phosphate;-inkscape-font-specification:Phosphate;white-space:pre;fill:#ffffff;fill-opacity:1;stroke-width:1.05833;stroke-linejoin:round;stroke-opacity:0.298039"
       d="m 931.86689,485.13703 c -0.10181,-0.10181 -0.2165,-0.18991 -0.34118,-0.26199 l -0.86784,-0.50101 c -0.60649,-0.35015 -1.33064,-0.4344 -2.00138,-0.23293 l -2.67211,0.80218 c -0.5978,0.17932 -0.96417,0.78048 -0.84953,1.39402 l 0.29322,1.56446 c 0.0652,0.34815 0.004,0.70793 -0.17347,1.0146 l -3.66691,6.35119 c -0.4544,0.78731 -0.18449,1.794 0.60284,2.24843 l 1.52784,0.88193 c 0.78716,0.45455 1.79377,0.18505 2.24842,-0.60202 l 6.16171,-10.67244 c 0.37228,-0.64502 0.26502,-1.45973 -0.26154,-1.98651 z" />
    <path
       id="path808"
       style="font-size:85.3333px;font-family:Phosphate;-inkscape-font-specification:Phosphate;white-space:pre;fill:#ffffff;fill-opacity:1;stroke-width:1.05833;stroke-linejoin:round;stroke-opacity:0.298039"
       d="m 938.99941,510.18315 c -0.10174,-0.10189 -0.21651,-0.18991 -0.34117,-0.26198 l -0.8678,-0.50105 c -0.60655,-0.35018 -1.33068,-0.4344 -2.00141,-0.23294 l -2.67213,0.80219 c -0.5978,0.17934 -0.96416,0.78052 -0.84946,1.39398 l 0.29313,1.56451 c 0.0652,0.3479 0.004,0.70794 -0.17344,1.01456 l -3.66688,6.35118 c -0.45438,0.78735 -0.18453,1.79404 0.60282,2.24845 l 1.52784,0.88196 c 0.78721,0.45457 1.79377,0.185 2.24841,-0.60205 l 6.16176,-10.67234 c 0.37229,-0.64505 0.26496,-1.45978 -0.2616,-1.98657 z" />
  </g>
</svg>
