<?xml version="1.0" encoding="UTF-8" standalone="no"?>
<!-- Created with Inkscape (http://www.inkscape.org/) -->

<svg
   width="1133.8584"
   height="837.52789"
   viewBox="0 0 300.00003 221.59592"
   version="1.1"
   id="svg1"
   xml:space="preserve"
   xmlns="http://www.w3.org/2000/svg"
   xmlns:svg="http://www.w3.org/2000/svg"><defs
     id="defs1" /><g
     id="layer1"
     transform="translate(-1530.3556,-701.59772)"><g
       id="g4"
       transform="matrix(0.98923662,0,0,0.98923662,-41.154408,-412.26709)"
       style="stroke:none;stroke-width:26.7462;stroke-dasharray:none;stroke-opacity:0.108108"><path
         id="path4"
         style="font-size:85.3333px;font-family:Phosphate;-inkscape-font-specification:Phosphate;white-space:pre;fill:currentColor;fill-opacity:1;stroke:none;stroke-width:26.7462;stroke-linejoin:round;stroke-dasharray:none;stroke-opacity:0.108108;paint-order:stroke fill markers"
         d="m 1737.0807,1125.9933 c -0.6847,0.02 -1.3749,0.076 -2.0687,0.1671 l -12.2369,1.6074 c -8.5499,1.1264 -16.2563,5.731 -21.2993,12.7264 l -20.0952,27.8735 c -4.4952,6.235 -3.5651,14.8568 2.1565,19.9897 l 14.585,13.09 c 3.2462,2.9115 5.3437,6.8886 5.9134,11.2119 l 15.7563,119.6914 c 1.4628,11.1002 11.6471,18.9127 22.7473,17.4493 l 21.5438,-2.8376 c 11.1,-1.4596 18.9153,-11.641 17.456,-22.741 l -23.7795,-180.6117 c -1.3714,-10.4064 -10.4082,-17.9233 -20.6787,-17.6164 z m -97.7491,10e-4 c -8.6739,0 -16.9644,3.5764 -22.9134,9.8888 l -23.6934,25.1618 c -5.3006,5.6265 -5.5058,14.3444 -0.4759,20.2143 l 12.8324,14.9685 c 2.8516,3.3295 4.4187,7.5689 4.4184,11.9527 v 121.4247 c 0,11.2609 9.1321,20.3881 20.3929,20.3861 h 21.8546 c 11.2608,0 20.391,-9.1254 20.3929,-20.3861 v -183.2246 c 0,-11.2582 -9.1278,-20.3847 -20.3861,-20.3862 z m 186.0163,0.02 c -2.1296,-0.1152 -4.2639,0.1153 -6.324,0.6618 l -11.9523,3.2017 c -8.3494,2.2397 -15.405,7.8251 -19.5001,15.4381 l -16.3246,30.3282 c -3.6537,6.7846 -1.6025,15.2325 4.7558,19.5859 l 16.2123,11.0992 c 3.6058,2.4683 6.21,6.1448 7.3421,10.3652 l 31.3202,116.8867 c 2.9054,10.838 14.0456,17.2695 24.8845,14.3666 l 21.0412,-5.6355 c 10.8408,-2.9024 17.2761,-14.0432 14.3735,-24.8839 l -47.2614,-176.3787 c -2.278,-8.5049 -9.7743,-14.575 -18.5672,-15.0348 z" /></g></g></svg>
