<?xml version="1.0" encoding="UTF-8" standalone="no"?>
<!-- Created with Inkscape (http://www.inkscape.org/) -->

<svg
   width="1288.8188"
   height="967.55896"
   viewBox="0 0 340.99999 255.99997"
   version="1.1"
   id="svg1"
   xmlns="http://www.w3.org/2000/svg"
   xmlns:svg="http://www.w3.org/2000/svg">
  <g
     id="layer1"
     transform="translate(-100,-500)">
    <g
       id="g47"
       transform="matrix(12.800062,0,0,12.800062,-3773.9939,-3805.0857)"
       style="fill:#010101;fill-opacity:1;stroke-width:0.0781255">
      <path
         id="path40"
         style="font-size:85.3333px;font-family:Phosphate;-inkscape-font-specification:Phosphate;white-space:pre;fill:currentColor;fill-opacity:1;stroke-width:0.0826822;stroke-linejoin:round;stroke-opacity:0.298039"
         d="m 308.09126,337.5834 a 2.4591368,2.4591368 0 0 0 -1.79008,0.77256 l -1.85105,1.96578 a 1.1817065,1.1817065 0 0 0 -0.0372,1.57923 l 1.00253,1.16943 a 1.4353455,1.4353455 0 0 1 0.3452,0.93379 v 9.48625 a 1.592905,1.592905 0 0 0 1.59318,1.59266 h 1.7074 a 1.5929241,1.5929241 0 0 0 1.59317,-1.59266 v -14.31437 a 1.5928858,1.5928858 0 0 0 -1.59266,-1.59267 z m 14.53245,0.002 a 1.587501,1.5875133 89.996897 0 0 -0.49404,0.0517 l -0.93379,0.25012 a 2.4507941,2.450813 89.996897 0 0 -1.52342,1.20613 l -1.27538,2.36936 a 1.1776976,1.1777066 89.996897 0 0 0.37156,1.53014 l 1.26659,0.86713 a 1.4304761,1.4304872 89.996897 0 1 0.57361,0.80977 l 2.44687,9.13174 a 1.587501,1.5875133 89.996897 0 0 1.94408,1.12241 l 1.64382,-0.44028 a 1.587501,1.5875133 89.996897 0 0 1.12293,-1.94407 l -3.69228,-13.77952 a 1.587501,1.5875133 89.996897 0 0 -1.45055,-1.17461 z m -7.05746,0.0114 -0.95601,0.12558 a 2.4449663,2.4449663 0 0 0 -1.66398,0.99425 l -1.56994,2.17765 a 1.1748971,1.1748971 0 0 0 0.16847,1.56166 l 1.13947,1.02268 a 1.4270746,1.4270746 0 0 1 0.46199,0.87591 l 1.23092,9.35085 a 1.5837261,1.5837261 0 0 0 1.77715,1.36323 l 1.68311,-0.2217 a 1.5837261,1.5837261 0 0 0 1.36374,-1.77664 l -1.85777,-14.11024 a 1.5837261,1.5837261 0 0 0 -1.77715,-1.36323 z m -7.47809,1.79886 h 0.10335 a 0.26548416,0.26548416 0 0 1 0.2651,0.2651 v 13.3444 a 0.26548416,0.26548416 0 0 1 -0.2651,0.26563 h -0.0584 a 0.26548416,0.26548416 0 0 1 -0.26562,-0.26563 v -12.5739 a 0.10876288,0.10876288 0 0 0 -0.18603,-0.0765 l -1.07746,1.0945 a 0.23955026,0.23955026 0 0 1 -0.35037,0.003 0.291649,0.291649 0 0 1 0.006,-0.39274 l 1.3808,-1.47071 a 0.61348268,0.61348268 0 0 1 0.44752,-0.19327 z m 6.85591,0.10025 a 0.26395435,0.26395435 0 0 1 0.2961,0.22738 l 1.73168,13.15423 a 0.26395435,0.26395435 0 0 1 -0.22737,0.29612 l -0.0568,0.007 a 0.26395435,0.26395435 0 0 1 -0.29662,-0.22738 l -1.63143,-12.39459 a 0.10813615,0.10813615 0 0 0 -0.19379,-0.0506 l -0.91984,1.21802 a 0.23816989,0.23816989 0 0 1 -0.3452,0.0486 0.28996842,0.28996842 0 0 1 -0.0449,-0.38758 l 1.17047,-1.62884 a 0.60994756,0.60994756 0 0 1 0.41599,-0.24908 z m 6.8156,0.11059 a 0.2645835,0.26458554 89.996897 0 1 0.32401,0.18706 l 3.44217,12.84573 a 0.2645835,0.26458554 89.996897 0 1 -0.18707,0.32402 l -0.0558,0.015 a 0.2645835,0.26458554 89.996897 0 1 -0.32401,-0.18706 l -3.24373,-12.10417 a 0.1083939,0.10839473 89.996897 0 0 -0.19895,-0.0258 l -0.75499,1.3317 a 0.23873758,0.23873942 89.996897 0 1 -0.33642,0.093 0.29065957,0.29066181 89.996897 0 1 -0.0951,-0.37929 l 0.94982,-1.772 a 0.61140143,0.61140613 89.996897 0 1 0.38034,-0.30178 z" />
    </g>
  </g>
</svg>
