<?xml version="1.0" encoding="UTF-8" standalone="no"?>
<!-- Created with Inkscape (http://www.inkscape.org/) -->

<svg
   width="825.67963"
   height="761.71045"
   viewBox="0 0 218.46107 201.53589"
   version="1.1"
   id="svg1"
   xml:space="preserve"
   xmlns="http://www.w3.org/2000/svg"
   xmlns:svg="http://www.w3.org/2000/svg"><defs
     id="defs1" /><g
     id="layer1"
     transform="translate(-5662.6309,1768.4933)"><g
       id="g5114"
       transform="matrix(0.90224155,0,0,0.89972617,-102.7395,-507.18048)"
       style="stroke:#00a1ac;stroke-width:29.3661;stroke-dasharray:none;stroke-opacity:0.108108"><g
         id="g31"
         transform="translate(23.421518,5.8813665)"><path
           id="path23-5"
           style="font-size:85.3333px;font-family:Phosphate;-inkscape-font-specification:Phosphate;white-space:pre;fill:#000000;fill-opacity:1;stroke:none;stroke-width:0;stroke-linejoin:round;stroke-dasharray:none;stroke-opacity:0.108108;paint-order:stroke fill markers"
           d="m 6575.9535,-1407.7667 c -8.6739,0 -16.9644,3.5764 -22.9134,9.8888 l -23.6934,25.1619 c -5.3006,5.6265 -5.5058,14.3445 -0.4759,20.2144 l 12.8324,14.9685 c 2.8516,3.3295 4.4187,7.5689 4.4184,11.9527 v 121.4246 c 0,11.2609 9.1321,20.3881 20.3929,20.3861 h 21.8546 c 11.2608,0 20.391,-9.1254 20.3929,-20.3861 v -59.3742 -123.8504 c 0,-11.2583 -9.1278,-20.3848 -20.3861,-20.3863 z" /><path
           id="path29-3"
           style="font-size:85.3333px;font-family:Phosphate;-inkscape-font-specification:Phosphate;white-space:pre;fill:#000000;fill-opacity:1;stroke:none;stroke-width:0;stroke-linejoin:round;stroke-dasharray:none;stroke-opacity:0.108108;paint-order:stroke fill markers"
           d="m 6426.7271,-1358.5297 c -8.6016,0 -15.5773,6.971 -15.5773,15.5735 v 29.0757 h -28.9907 c -8.5775,0 -15.5287,6.9956 -15.5287,15.6223 v 16.7424 c 0,8.6267 6.951,15.6227 15.5287,15.6227 h 28.9907 v 29.0757 c 0,8.6026 6.9757,15.5736 15.5773,15.5736 h 16.6937 c 8.6015,0 15.5768,-6.9709 15.5768,-15.5736 v -29.0757 h 28.9911 c 8.5777,0 15.5282,-6.996 15.5282,-15.6227 v -16.7424 c 0,-8.6267 -6.9507,-15.6208 -15.5282,-15.6223 h -28.9911 v -29.0757 c 0,-8.6026 -6.9753,-15.5735 -15.5768,-15.5735 z" /></g></g></g></svg>
